<svg width="214" height="245" viewBox="0 0 214 245" fill="none" xmlns="http://www.w3.org/2000/svg">
<g filter="url(#filter0_d_187_2235)">
<rect y="33" width="200" height="200" fill="#DAC285"/>
</g>
<path d="M83.25 102.688C83.25 102.938 83.1146 103.167 82.8438 103.375C82.5729 103.604 82.25 103.802 81.875 103.969C81.5 104.135 81.125 104.26 80.75 104.344C80.375 104.448 80.0833 104.5 79.875 104.5C79.3958 104.5 78.8125 104.25 78.125 103.75C77.4583 103.25 76.7917 102.667 76.125 102C75.4583 101.333 74.8333 100.656 74.25 99.9688C73.6667 99.2812 73.2292 98.75 72.9375 98.375C72.3125 98.75 71.6458 99.0208 70.9375 99.1875C70.25 99.3542 69.5417 99.4375 68.8125 99.4375C67.5833 99.4375 66.5 99.2083 65.5625 98.75C64.6458 98.2917 63.8438 97.6771 63.1562 96.9062C62.4688 96.1354 61.875 95.2604 61.375 94.2812C60.8958 93.2812 60.4896 92.2396 60.1562 91.1562C59.8229 90.0729 59.5521 88.9896 59.3438 87.9062C59.1354 86.8229 58.9583 85.8125 58.8125 84.875C58.5 83.0417 58.25 81.2396 58.0625 79.4688C57.8958 77.6979 57.8125 75.8958 57.8125 74.0625C57.8125 72.5 57.9062 70.8542 58.0938 69.125C58.2812 67.375 58.5938 65.6562 59.0312 63.9688C59.4688 62.2604 60.0521 60.6458 60.7812 59.125C61.5312 57.5833 62.4583 56.2292 63.5625 55.0625C63.7917 54.8125 64.0833 54.5312 64.4375 54.2188C64.7917 53.9062 65.125 53.75 65.4375 53.75C65.6667 53.75 65.875 53.8125 66.0625 53.9375C66.2708 54.0625 66.4375 54.2083 66.5625 54.375C67.5625 53.875 68.6458 53.625 69.8125 53.625C71.4583 53.625 72.8646 54.0104 74.0312 54.7812C75.1979 55.5312 76.1771 56.5312 76.9688 57.7812C77.7604 59.0104 78.375 60.4167 78.8125 62C79.2708 63.5833 79.6146 65.1979 79.8438 66.8438C80.0729 68.4688 80.2188 70.0521 80.2812 71.5938C80.3438 73.1354 80.375 74.5 80.375 75.6875C80.375 77.1875 80.3125 78.8125 80.1875 80.5625C80.0625 82.2917 79.8333 84.0312 79.5 85.7812C79.1875 87.5312 78.75 89.2188 78.1875 90.8438C77.6458 92.4688 76.9583 93.9167 76.125 95.1875C76.9167 96.1042 77.7083 97.0104 78.5 97.9062C79.3125 98.8021 80.1875 99.6458 81.125 100.438C81.2708 100.542 81.4583 100.677 81.6875 100.844C81.9375 101.031 82.1771 101.219 82.4062 101.406C82.6354 101.615 82.8333 101.823 83 102.031C83.1667 102.26 83.25 102.479 83.25 102.688ZM75.5 75.625C75.5 75.0208 75.4792 74.1562 75.4375 73.0312C75.3958 71.9062 75.3125 70.6771 75.1875 69.3438C75.0625 68.0104 74.875 66.6562 74.625 65.2812C74.375 63.8854 74.0417 62.625 73.625 61.5C73.2083 60.3542 72.6979 59.4271 72.0938 58.7188C71.4896 57.9896 70.75 57.625 69.875 57.625C69.2917 57.625 68.8021 57.8021 68.4062 58.1562C68.0312 58.4896 67.7083 58.9271 67.4375 59.4688C67.1667 59.9896 66.9271 60.5521 66.7188 61.1562C66.5312 61.7604 66.3333 62.3333 66.125 62.875C65.9375 63.3958 65.7083 63.8333 65.4375 64.1875C65.1875 64.5208 64.875 64.6875 64.5 64.6875C64.0833 64.6875 63.7083 64.6042 63.375 64.4375C62.9583 65.9167 62.6771 67.4062 62.5312 68.9062C62.3854 70.3854 62.3125 71.875 62.3125 73.375C62.3125 73.875 62.3333 74.5729 62.375 75.4688C62.4167 76.3646 62.4896 77.3854 62.5938 78.5312C62.6979 79.6771 62.8229 80.8958 62.9688 82.1875C63.1354 83.4792 63.3438 84.7604 63.5938 86.0312C63.8438 87.3021 64.125 88.5312 64.4375 89.7188C64.7708 90.8854 65.1458 91.9167 65.5625 92.8125C66 93.7083 66.4792 94.4271 67 94.9688C67.5417 95.4896 68.1458 95.75 68.8125 95.75C69.1042 95.75 69.3854 95.6979 69.6562 95.5938C69.9479 95.4688 70.2083 95.3125 70.4375 95.125C70.3125 94.9375 70.0938 94.625 69.7812 94.1875C69.4688 93.7292 69.1146 93.2083 68.7188 92.625C68.3438 92.0417 67.9479 91.4375 67.5312 90.8125C67.1146 90.1667 66.7292 89.5625 66.375 89C66.0417 88.4375 65.7604 87.9583 65.5312 87.5625C65.3021 87.1458 65.1875 86.875 65.1875 86.75C65.1875 86.5625 65.2604 86.4062 65.4062 86.2812C65.5521 86.1562 65.7292 86.0625 65.9375 86C66.1458 85.9375 66.3542 85.8958 66.5625 85.875C66.7708 85.8333 66.9375 85.8125 67.0625 85.8125C67.875 85.8125 68.5 85.9583 68.9375 86.25C69.3958 86.5417 69.875 87 70.375 87.625C70.8542 88.2292 71.3125 88.8542 71.75 89.5C72.1875 90.125 72.6458 90.75 73.125 91.375C73.625 90.2292 74.0312 89 74.3438 87.6875C74.6562 86.3542 74.8958 85.0104 75.0625 83.6562C75.2292 82.2812 75.3438 80.9167 75.4062 79.5625C75.4688 78.1875 75.5 76.875 75.5 75.625ZM97 78.375C97 78.5833 96.9792 78.8021 96.9375 79.0312C96.8958 79.2604 96.8542 79.4688 96.8125 79.6562C96.7708 79.8854 96.7292 80.1042 96.6875 80.3125C96.6458 80.5 96.625 80.6875 96.625 80.875C96.625 82.8125 96.6562 84.7604 96.7188 86.7188C96.8021 88.6562 97.0104 90.6042 97.3438 92.5625C97.4479 93.3125 97.5729 94.0417 97.7188 94.75C97.8646 95.4583 98.0312 96.1771 98.2188 96.9062L98.2812 97.0938V97.0312C98.3438 97.1771 98.3958 97.3333 98.4375 97.5C98.5 97.6458 98.5312 97.8021 98.5312 97.9688C98.5312 98.1979 98.4688 98.3854 98.3438 98.5312C98.2396 98.6771 98.1042 98.7917 97.9375 98.875C97.7708 98.9583 97.5833 99.0104 97.375 99.0312C97.1875 99.0521 97.0104 99.0625 96.8438 99.0625C96.1562 99.0625 95.6042 98.9896 95.1875 98.8438C94.7917 98.6771 94.4688 98.4583 94.2188 98.1875C93.9688 97.8958 93.7812 97.5521 93.6562 97.1562C93.5521 96.7604 93.4583 96.3229 93.375 95.8438L93.2812 95.2812C93.1979 94.9896 93.1458 94.6771 93.125 94.3438C93.1042 94.1771 93.0833 94.1042 93.0625 94.125C93.0625 94.125 93.0521 94.0417 93.0312 93.875C92.7396 94.3958 92.3958 94.9583 92 95.5625C91.625 96.1458 91.1875 96.6979 90.6875 97.2188C90.2083 97.7188 89.6875 98.1458 89.125 98.5C88.5625 98.8333 87.9583 99 87.3125 99C86.4167 99 85.7188 98.7292 85.2188 98.1875C84.7396 97.6458 84.3854 96.9896 84.1562 96.2188C83.9271 95.4271 83.7917 94.6146 83.75 93.7812C83.7083 92.9271 83.6875 92.1875 83.6875 91.5625C83.6875 89.1875 83.7604 86.8333 83.9062 84.5C84.0729 82.1667 84.25 79.8229 84.4375 77.4688C84.4375 77.4062 84.4375 77.3229 84.4375 77.2188C84.4583 77.1146 84.4688 77.0312 84.4688 76.9688C84.4896 76.6771 84.5104 76.4062 84.5312 76.1562C84.5521 75.9062 84.6042 75.6667 84.6875 75.4375V75.4688C84.7708 75.1354 84.8854 74.8958 85.0312 74.75C85.1979 74.6042 85.4479 74.5312 85.7812 74.5312C86.0938 74.5312 86.4062 74.5938 86.7188 74.7188C87.0312 74.8229 87.3125 74.9792 87.5625 75.1875C87.8125 75.375 88.0104 75.6042 88.1562 75.875C88.3229 76.1458 88.4062 76.4479 88.4062 76.7812C88.4062 76.9479 88.4062 77.1458 88.4062 77.375C88.4062 77.6042 88.3958 77.8021 88.375 77.9688C88.375 78.1146 88.3646 78.3021 88.3438 78.5312C88.3438 78.7396 88.3438 78.9167 88.3438 79.0625C88.1771 81.0625 88.0521 83.0521 87.9688 85.0312C87.8854 86.9896 87.8438 88.9792 87.8438 91C87.8438 91.5625 87.8438 92.125 87.8438 92.6875C87.8646 93.25 87.9271 93.8125 88.0312 94.375C88.7188 93.5 89.3125 92.3854 89.8125 91.0312C90.3125 89.6562 90.7292 88.2083 91.0625 86.6875C91.4167 85.1458 91.6979 83.625 91.9062 82.125C92.1354 80.6042 92.3021 79.2604 92.4062 78.0938C92.4062 78.0312 92.4062 77.9583 92.4062 77.875C92.4271 77.7917 92.4375 77.7188 92.4375 77.6562C92.4583 77.4271 92.4792 77.2083 92.5 77C92.5208 76.7917 92.5938 76.5938 92.7188 76.4062C92.7188 76.2188 92.7292 76.0208 92.75 75.8125C92.7708 75.6042 92.8229 75.4167 92.9062 75.25C92.9896 75.0625 93.1042 74.9167 93.25 74.8125C93.4167 74.7083 93.6458 74.6562 93.9375 74.6562C94.7708 74.6562 95.4271 74.9167 95.9062 75.4375C96.3854 75.9375 96.6458 76.5833 96.6875 77.375C96.7917 77.5417 96.8646 77.7083 96.9062 77.875C96.9688 78.0208 97 78.1875 97 78.375ZM112.688 93.2812C112.688 93.9062 112.51 94.5521 112.156 95.2188C111.823 95.8854 111.385 96.5 110.844 97.0625C110.302 97.6042 109.677 98.0521 108.969 98.4062C108.281 98.7604 107.594 98.9375 106.906 98.9375C105.927 98.9375 105.083 98.75 104.375 98.375C103.667 97.9792 103.052 97.4583 102.531 96.8125C102.01 96.1458 101.583 95.3958 101.25 94.5625C100.938 93.7292 100.688 92.875 100.5 92C100.312 91.1042 100.177 90.2188 100.094 89.3438C100.031 88.4479 100 87.6354 100 86.9062C100 86.2812 100.031 85.5417 100.094 84.6875C100.177 83.8333 100.302 82.9479 100.469 82.0312C100.656 81.1146 100.906 80.2083 101.219 79.3125C101.531 78.4167 101.917 77.6146 102.375 76.9062C102.854 76.1979 103.417 75.625 104.062 75.1875C104.729 74.75 105.49 74.5312 106.344 74.5312C107.01 74.5312 107.604 74.6667 108.125 74.9375C108.667 75.2083 109.115 75.5729 109.469 76.0312C109.844 76.4688 110.125 76.9792 110.312 77.5625C110.521 78.1458 110.625 78.75 110.625 79.375C110.625 80.1875 110.438 81.0729 110.062 82.0312C109.688 82.9896 109.198 83.9167 108.594 84.8125C108.01 85.7083 107.344 86.5208 106.594 87.25C105.865 87.9583 105.135 88.5 104.406 88.875C104.448 89.25 104.531 89.8021 104.656 90.5312C104.781 91.2396 104.948 91.9479 105.156 92.6562C105.385 93.3646 105.646 93.9792 105.938 94.5C106.25 95.0208 106.615 95.2812 107.031 95.2812C107.24 95.2812 107.417 95.2188 107.562 95.0938C107.729 94.9688 107.875 94.8021 108 94.5938C108.125 94.3854 108.229 94.1562 108.312 93.9062C108.417 93.6562 108.51 93.4167 108.594 93.1875L108.781 92.75C108.823 92.6875 108.844 92.6458 108.844 92.625C108.865 92.6042 108.885 92.5729 108.906 92.5312C109.052 92.2604 109.188 92.0104 109.312 91.7812C109.458 91.5521 109.656 91.3542 109.906 91.1875H109.875C109.958 91.1042 110.042 91.0625 110.125 91.0625C110.229 91.0417 110.323 91.0312 110.406 91.0312C110.635 91.0312 110.885 91.1042 111.156 91.25C111.427 91.3958 111.677 91.5833 111.906 91.8125C112.135 92.0208 112.323 92.2604 112.469 92.5312C112.615 92.7812 112.688 93.0312 112.688 93.2812ZM106.5 79.5C106.5 79.2917 106.49 79.0729 106.469 78.8438C106.448 78.6146 106.396 78.4167 106.312 78.25C106.021 78.6042 105.76 79.0312 105.531 79.5312C105.323 80.0104 105.146 80.5208 105 81.0625C104.854 81.5833 104.729 82.1146 104.625 82.6562C104.542 83.1979 104.479 83.6979 104.438 84.1562C104.979 83.5104 105.458 82.7812 105.875 81.9688C106.292 81.1354 106.5 80.3125 106.5 79.5ZM117.062 99.5C116.75 99.5 116.406 99.4583 116.031 99.375C115.677 99.2917 115.333 99.1562 115 98.9688C114.688 98.7812 114.417 98.5521 114.188 98.2812C113.979 97.9896 113.875 97.6458 113.875 97.25C113.875 96.6667 113.896 96.0938 113.938 95.5312C114 94.9479 114.062 94.375 114.125 93.8125V93.8438L114.312 91.75C114.375 91 114.427 90.1771 114.469 89.2812C114.51 88.3854 114.542 87.4792 114.562 86.5625C114.604 85.625 114.635 84.7083 114.656 83.8125C114.677 82.9167 114.688 82.0938 114.688 81.3438C114.688 80.9062 114.677 80.4688 114.656 80.0312C114.656 79.5729 114.656 79.1146 114.656 78.6562C114.635 78.2604 114.625 77.8229 114.625 77.3438C114.625 76.8438 114.625 76.3854 114.625 75.9688C114.625 75.5312 114.677 75.1771 114.781 74.9062C114.906 74.6146 115.24 74.4688 115.781 74.4688C116.26 74.4688 116.76 74.5938 117.281 74.8438C117.823 75.0938 118.198 75.4479 118.406 75.9062H118.375C118.479 76.1354 118.552 76.5104 118.594 77.0312C118.656 77.5312 118.698 77.9792 118.719 78.375C119.073 77.8333 119.469 77.2604 119.906 76.6562C120.365 76.0521 120.854 75.5 121.375 75C121.896 74.4792 122.448 74.0521 123.031 73.7188C123.615 73.3854 124.24 73.2188 124.906 73.2188C125.781 73.2188 126.448 73.4375 126.906 73.875C127.365 74.3125 127.698 74.8646 127.906 75.5312C128.115 76.1771 128.229 76.875 128.25 77.625C128.271 78.3542 128.281 79.0208 128.281 79.625V79.875C128.281 80.125 128.271 80.375 128.25 80.625C128.25 80.8542 128.208 81.0729 128.125 81.2812C128.062 81.4688 127.938 81.625 127.75 81.75C127.583 81.875 127.344 81.9375 127.031 81.9375C126.698 81.9375 126.344 81.8958 125.969 81.8125C125.594 81.7083 125.24 81.5625 124.906 81.375C124.594 81.1875 124.323 80.9583 124.094 80.6875C123.865 80.3958 123.74 80.0625 123.719 79.6875C123.719 79.5208 123.719 79.3542 123.719 79.1875C123.719 79.0208 123.729 78.8542 123.75 78.6875C123.75 78.5833 123.75 78.4583 123.75 78.3125C123.771 78.1458 123.781 77.9896 123.781 77.8438C123.115 78.5104 122.521 79.3333 122 80.3125C121.5 81.2917 121.042 82.3333 120.625 83.4375C120.229 84.5417 119.885 85.6562 119.594 86.7812C119.302 87.8854 119.052 88.8854 118.844 89.7812V89.875C118.781 90.5208 118.74 91.1562 118.719 91.7812C118.698 92.4062 118.677 93.0521 118.656 93.7188C118.635 94.4688 118.604 95.2292 118.562 96C118.542 96.7708 118.49 97.5208 118.406 98.25C118.365 98.6458 118.24 98.9479 118.031 99.1562C117.844 99.3854 117.521 99.5 117.062 99.5ZM143.188 86.1875C143.188 88 143.031 89.8125 142.719 91.625C142.427 93.4167 141.812 95.1146 140.875 96.7188C140.583 97.1979 140.25 97.6667 139.875 98.125C139.5 98.5625 139.083 98.9583 138.625 99.3125C138.188 99.6875 137.698 99.9792 137.156 100.188C136.635 100.417 136.083 100.531 135.5 100.531C134.583 100.531 133.781 100.312 133.094 99.875C132.427 99.4583 131.844 98.9062 131.344 98.2188C130.865 97.5104 130.458 96.7188 130.125 95.8438C129.812 94.9479 129.562 94.0417 129.375 93.125C129.208 92.1875 129.083 91.2812 129 90.4062C128.938 89.5312 128.906 88.7604 128.906 88.0938C128.906 87.3438 128.938 86.5208 129 85.625C129.062 84.7292 129.167 83.8125 129.312 82.875C129.479 81.9375 129.688 81.0104 129.938 80.0938C130.208 79.1771 130.552 78.3229 130.969 77.5312C131.385 76.7188 131.885 76 132.469 75.375C133.052 74.7292 133.729 74.2188 134.5 73.8438V73.875C135.167 73.5208 135.833 73.3438 136.5 73.3438C136.917 73.3438 137.24 73.4375 137.469 73.625C137.698 73.7917 137.802 74.0833 137.781 74.5C138.927 74.7083 139.854 75.2604 140.562 76.1562C141.271 77.0521 141.812 78.0938 142.188 79.2812C142.583 80.4688 142.844 81.6875 142.969 82.9375C143.115 84.1875 143.188 85.2708 143.188 86.1875ZM136.125 78.375C135.771 78.375 135.438 78.2396 135.125 77.9688C134.729 78.5729 134.396 79.2708 134.125 80.0625C133.854 80.8333 133.635 81.6354 133.469 82.4688C133.323 83.2812 133.219 84.1042 133.156 84.9375C133.094 85.7708 133.062 86.5521 133.062 87.2812C133.062 87.8854 133.094 88.6667 133.156 89.625C133.219 90.5625 133.333 91.5104 133.5 92.4688C133.688 93.4271 133.938 94.3229 134.25 95.1562C134.583 95.9896 135.01 96.6042 135.531 97C136.177 96.625 136.708 96.0312 137.125 95.2188C137.562 94.3854 137.906 93.4792 138.156 92.5C138.406 91.5208 138.573 90.5312 138.656 89.5312C138.76 88.5312 138.812 87.6771 138.812 86.9688C138.812 86.4479 138.781 85.7708 138.719 84.9375C138.656 84.1042 138.552 83.2604 138.406 82.4062C138.26 81.5312 138.052 80.7188 137.781 79.9688C137.531 79.2188 137.208 78.6562 136.812 78.2812C136.625 78.3438 136.396 78.375 136.125 78.375ZM64.8438 162.031C64.8438 162.26 64.7917 162.458 64.6875 162.625C64.5833 162.771 64.4479 162.896 64.2812 163C64.1354 163.083 63.9688 163.146 63.7812 163.188C63.6146 163.229 63.4479 163.25 63.2812 163.25C63.0312 163.25 62.7604 163.219 62.4688 163.156C62.1771 163.094 61.8854 163.01 61.5938 162.906C61.3021 162.781 61.0312 162.635 60.7812 162.469C60.5521 162.281 60.375 162.073 60.25 161.844C60.125 161.615 60.0312 161.333 59.9688 161C59.9271 160.646 59.8854 160.292 59.8438 159.938C59.6354 160.438 59.3854 160.927 59.0938 161.406C58.8229 161.885 58.4896 162.312 58.0938 162.688C57.6979 163.042 57.25 163.323 56.75 163.531C56.2708 163.76 55.7292 163.875 55.125 163.875C54.0625 163.875 53.1979 163.625 52.5312 163.125C51.8854 162.625 51.375 162 51 161.25C50.6458 160.479 50.4062 159.646 50.2812 158.75C50.1771 157.833 50.125 156.958 50.125 156.125C50.125 155.438 50.1562 154.656 50.2188 153.781C50.2812 152.906 50.3646 152.01 50.4688 151.094C50.5729 150.177 50.6979 149.292 50.8438 148.438C50.9896 147.562 51.1458 146.792 51.3125 146.125C51.5208 145.354 51.7708 144.51 52.0625 143.594C52.375 142.656 52.7604 141.792 53.2188 141C53.6979 140.188 54.2812 139.5 54.9688 138.938C55.6562 138.375 56.4792 138.062 57.4375 138C57.375 136.312 57.2812 134.76 57.1562 133.344C57.0521 131.906 56.9375 130.438 56.8125 128.938L56.5 125.469L56.375 124.219C56.3333 123.885 56.3021 123.552 56.2812 123.219C56.2604 122.865 56.25 122.521 56.25 122.188C56.25 121.708 56.375 121.375 56.625 121.188C56.8958 121 57.2396 120.906 57.6562 120.906C58.5729 120.906 59.2708 121.042 59.75 121.312C60.2292 121.583 60.5625 121.948 60.75 122.406C60.9583 122.865 61.0729 123.406 61.0938 124.031C61.1146 124.635 61.125 125.292 61.125 126C61.125 126.458 61.1771 126.979 61.2812 127.562L61.4375 128.719L61.6875 131.906C61.7292 132.406 61.7708 132.906 61.8125 133.406C61.8542 133.906 61.8958 134.406 61.9375 134.906L62.5938 141.625L63.8438 154.188L63.9375 155.344C64.0208 156.198 64.0938 157.083 64.1562 158C64.2396 158.917 64.3854 159.823 64.5938 160.719C64.6562 160.948 64.7083 161.167 64.75 161.375C64.8125 161.583 64.8438 161.802 64.8438 162.031ZM57.5625 143.75C57.5625 143.521 57.5521 143.271 57.5312 143C57.5312 142.708 57.5312 142.438 57.5312 142.188V141.344C57.3854 141.552 57.1979 141.844 56.9688 142.219C56.7396 142.573 56.5625 142.896 56.4375 143.188C56.1042 143.917 55.8021 144.854 55.5312 146C55.2604 147.125 55.0208 148.312 54.8125 149.562C54.625 150.792 54.4792 152 54.375 153.188C54.2708 154.354 54.2188 155.333 54.2188 156.125C54.2188 156.417 54.2188 156.75 54.2188 157.125C54.2396 157.5 54.2812 157.885 54.3438 158.281C54.4062 158.656 54.5 159.021 54.625 159.375C54.75 159.729 54.9167 160.021 55.125 160.25C55.4375 159.854 55.7188 159.25 55.9688 158.438C56.2188 157.604 56.4271 156.667 56.5938 155.625C56.7812 154.562 56.9375 153.448 57.0625 152.281C57.1875 151.115 57.2812 149.99 57.3438 148.906C57.4271 147.802 57.4792 146.802 57.5 145.906C57.5417 144.99 57.5625 144.271 57.5625 143.75ZM71.0312 136.719C71.0312 137.073 70.9479 137.333 70.7812 137.5C70.6354 137.646 70.3542 137.719 69.9375 137.719C69.75 137.719 69.4583 137.698 69.0625 137.656C68.6667 137.594 68.2604 137.51 67.8438 137.406C67.4479 137.302 67.0938 137.156 66.7812 136.969C66.4896 136.781 66.3438 136.552 66.3438 136.281C66.3438 136.198 66.375 135.969 66.4375 135.594C66.5 135.198 66.5729 134.781 66.6562 134.344C66.7604 133.906 66.8438 133.51 66.9062 133.156C66.9896 132.802 67.0521 132.604 67.0938 132.562V132.594C67.1979 132.427 67.3229 132.323 67.4688 132.281C67.6146 132.24 67.7604 132.219 67.9062 132.219C68.0938 132.219 68.3333 132.25 68.625 132.312C68.9375 132.354 69.2396 132.427 69.5312 132.531C69.8438 132.615 70.125 132.729 70.375 132.875C70.625 133.021 70.7812 133.177 70.8438 133.344C70.9062 133.51 70.9375 133.74 70.9375 134.031C70.9583 134.302 70.9583 134.552 70.9375 134.781C70.9375 134.865 70.9271 134.969 70.9062 135.094C70.9062 135.198 70.9062 135.281 70.9062 135.344C70.9062 135.448 70.9062 135.552 70.9062 135.656C70.9271 135.76 70.9479 135.865 70.9688 135.969C70.9896 136.073 71 136.188 71 136.312C71.0208 136.438 71.0312 136.573 71.0312 136.719ZM72.1875 161.625C72.1875 162.104 72.0729 162.448 71.8438 162.656C71.6354 162.844 71.2917 162.938 70.8125 162.938C70.5625 162.938 70.2812 162.906 69.9688 162.844C69.6771 162.781 69.3854 162.698 69.0938 162.594C68.8021 162.469 68.5312 162.323 68.2812 162.156C68.0312 161.99 67.8438 161.802 67.7188 161.594C67.6354 161.469 67.5625 161.083 67.5 160.438C67.4375 159.792 67.3854 158.99 67.3438 158.031C67.3229 157.073 67.2917 156 67.25 154.812C67.2292 153.625 67.2083 152.427 67.1875 151.219C67.1875 150.01 67.1875 148.833 67.1875 147.688C67.1875 146.542 67.1875 145.542 67.1875 144.688V142.281C67.1875 142.073 67.1875 141.865 67.1875 141.656C67.2083 141.448 67.25 141.271 67.3125 141.125C67.3958 140.958 67.5104 140.823 67.6562 140.719C67.8229 140.615 68.0521 140.562 68.3438 140.562C69.2604 140.562 69.9271 140.823 70.3438 141.344C70.7812 141.844 71.0521 142.521 71.1562 143.375C71.2604 144.646 71.3333 145.917 71.375 147.188C71.4375 148.438 71.4896 149.708 71.5312 151C71.5729 152.167 71.6042 153.323 71.625 154.469C71.6667 155.594 71.7396 156.719 71.8438 157.844C71.8646 158.073 71.8854 158.292 71.9062 158.5C71.9271 158.708 71.9583 158.917 72 159.125C72.0417 159.542 72.0833 159.958 72.125 160.375C72.1667 160.771 72.1875 161.188 72.1875 161.625ZM90.9062 155.25C90.9062 155.458 90.8438 155.708 90.7188 156C90.6146 156.271 90.4688 156.562 90.2812 156.875C90.1146 157.167 89.9271 157.469 89.7188 157.781C89.5104 158.094 89.3125 158.375 89.125 158.625L88.6562 159.281L88.1875 160.094L87.7812 160.844C87.8021 161.26 87.8333 161.708 87.875 162.188C87.9167 162.667 87.9583 163.125 88 163.562C88.2292 165.708 88.4271 167.896 88.5938 170.125C88.7812 172.354 88.875 174.542 88.875 176.688C88.875 177.833 88.7812 178.99 88.5938 180.156C88.4062 181.344 88.0521 182.406 87.5312 183.344C87.0312 184.302 86.3333 185.083 85.4375 185.688C84.5417 186.292 83.3958 186.594 82 186.594C81.0417 186.594 80.2292 186.417 79.5625 186.062C78.8958 185.708 78.3542 185.229 77.9375 184.625C77.5417 184.042 77.25 183.354 77.0625 182.562C76.875 181.771 76.7812 180.948 76.7812 180.094C76.7812 178.406 76.9792 176.698 77.375 174.969C77.7708 173.24 78.2812 171.531 78.9062 169.844C79.5521 168.156 80.2812 166.5 81.0938 164.875C81.9062 163.271 82.7292 161.729 83.5625 160.25C83.5625 160.208 83.5625 160.167 83.5625 160.125C83.5625 160.062 83.5521 159.969 83.5312 159.844C83.2604 160.344 82.9479 160.865 82.5938 161.406C82.2604 161.927 81.875 162.396 81.4375 162.812C81.0208 163.229 80.5521 163.573 80.0312 163.844C79.5312 164.115 78.9688 164.25 78.3438 164.25C77.4688 164.25 76.7396 164.042 76.1562 163.625C75.5729 163.208 75.1042 162.677 74.75 162.031C74.4167 161.385 74.1771 160.677 74.0312 159.906C73.8854 159.135 73.8125 158.406 73.8125 157.719C73.8125 156.927 73.8542 156.146 73.9375 155.375C74.0417 154.604 74.1562 153.854 74.2812 153.125C74.4896 151.958 74.75 150.698 75.0625 149.344C75.3958 147.969 75.8021 146.615 76.2812 145.281C76.7604 143.927 77.3125 142.656 77.9375 141.469C78.5833 140.281 79.3333 139.271 80.1875 138.438L80.4375 138.219C80.7083 137.948 81.0208 137.688 81.375 137.438C81.7292 137.167 82.0938 137.031 82.4688 137.031C82.6979 137.031 82.8958 137.094 83.0625 137.219C83.25 137.344 83.4062 137.51 83.5312 137.719C83.6562 137.906 83.75 138.115 83.8125 138.344C83.8958 138.573 83.9375 138.792 83.9375 139C83.9375 139.25 83.8438 139.521 83.6562 139.812H83.7188C84.9896 139.812 85.8438 140.396 86.2812 141.562C86.5104 141.771 86.6771 142.021 86.7812 142.312C86.9062 142.604 86.9688 142.917 86.9688 143.25C86.9688 143.417 86.9583 143.604 86.9375 143.812C86.9167 144 86.8854 144.177 86.8438 144.344C86.8021 144.531 86.7708 144.708 86.75 144.875C86.7292 145.042 86.7188 145.198 86.7188 145.344C86.7188 145.823 86.7292 146.417 86.75 147.125C86.7708 147.833 86.8021 148.573 86.8438 149.344C86.8854 150.115 86.9271 150.875 86.9688 151.625C87.0312 152.354 87.0833 152.99 87.125 153.531C87.2708 153.344 87.4375 153.177 87.625 153.031C87.8333 152.885 88.0729 152.812 88.3438 152.812C88.5729 152.812 88.8333 152.896 89.125 153.062C89.4375 153.229 89.7188 153.438 89.9688 153.688C90.2396 153.938 90.4583 154.208 90.625 154.5C90.8125 154.771 90.9062 155.021 90.9062 155.25ZM82.3125 142.375C82.3125 142.25 82.3125 142.115 82.3125 141.969C82.3333 141.823 82.3646 141.667 82.4062 141.5L82.1875 141.781C82.0208 141.969 81.8646 142.146 81.7188 142.312C81.5729 142.479 81.4375 142.656 81.3125 142.844C80.7708 143.635 80.2917 144.667 79.875 145.938C79.4792 147.188 79.1458 148.51 78.875 149.906C78.6042 151.281 78.3958 152.635 78.25 153.969C78.125 155.302 78.0625 156.448 78.0625 157.406C78.0625 157.885 78.0729 158.365 78.0938 158.844C78.1146 159.323 78.2188 159.792 78.4062 160.25C78.6979 159.938 78.9375 159.604 79.125 159.25C79.3125 158.875 79.4896 158.49 79.6562 158.094C80.1146 157.073 80.5104 155.885 80.8438 154.531C81.1771 153.177 81.4479 151.781 81.6562 150.344C81.8646 148.906 82.0208 147.5 82.125 146.125C82.2292 144.729 82.2917 143.479 82.3125 142.375ZM84.6875 175.75C84.6875 174.333 84.6562 173 84.5938 171.75C84.5312 170.521 84.4375 169.198 84.3125 167.781C83.9375 168.677 83.5521 169.635 83.1562 170.656C82.7812 171.698 82.4479 172.74 82.1562 173.781C81.8646 174.844 81.625 175.896 81.4375 176.938C81.25 177.979 81.1562 178.969 81.1562 179.906V180.125C81.1562 180.604 81.1875 181.115 81.25 181.656C81.3125 182.219 81.5104 182.677 81.8438 183.031H82.1875C82.6042 183.031 82.9479 182.885 83.2188 182.594C83.5104 182.323 83.75 181.969 83.9375 181.531C84.125 181.094 84.2708 180.604 84.375 180.062C84.4792 179.521 84.5521 178.979 84.5938 178.438C84.6354 177.896 84.6562 177.385 84.6562 176.906C84.6771 176.427 84.6875 176.042 84.6875 175.75ZM95.7188 136.719C95.7188 137.073 95.6354 137.333 95.4688 137.5C95.3229 137.646 95.0417 137.719 94.625 137.719C94.4375 137.719 94.1458 137.698 93.75 137.656C93.3542 137.594 92.9479 137.51 92.5312 137.406C92.1354 137.302 91.7812 137.156 91.4688 136.969C91.1771 136.781 91.0312 136.552 91.0312 136.281C91.0312 136.198 91.0625 135.969 91.125 135.594C91.1875 135.198 91.2604 134.781 91.3438 134.344C91.4479 133.906 91.5312 133.51 91.5938 133.156C91.6771 132.802 91.7396 132.604 91.7812 132.562V132.594C91.8854 132.427 92.0104 132.323 92.1562 132.281C92.3021 132.24 92.4479 132.219 92.5938 132.219C92.7812 132.219 93.0208 132.25 93.3125 132.312C93.625 132.354 93.9271 132.427 94.2188 132.531C94.5312 132.615 94.8125 132.729 95.0625 132.875C95.3125 133.021 95.4688 133.177 95.5312 133.344C95.5938 133.51 95.625 133.74 95.625 134.031C95.6458 134.302 95.6458 134.552 95.625 134.781C95.625 134.865 95.6146 134.969 95.5938 135.094C95.5938 135.198 95.5938 135.281 95.5938 135.344C95.5938 135.448 95.5938 135.552 95.5938 135.656C95.6146 135.76 95.6354 135.865 95.6562 135.969C95.6771 136.073 95.6875 136.188 95.6875 136.312C95.7083 136.438 95.7188 136.573 95.7188 136.719ZM96.875 161.625C96.875 162.104 96.7604 162.448 96.5312 162.656C96.3229 162.844 95.9792 162.938 95.5 162.938C95.25 162.938 94.9688 162.906 94.6562 162.844C94.3646 162.781 94.0729 162.698 93.7812 162.594C93.4896 162.469 93.2188 162.323 92.9688 162.156C92.7188 161.99 92.5312 161.802 92.4062 161.594C92.3229 161.469 92.25 161.083 92.1875 160.438C92.125 159.792 92.0729 158.99 92.0312 158.031C92.0104 157.073 91.9792 156 91.9375 154.812C91.9167 153.625 91.8958 152.427 91.875 151.219C91.875 150.01 91.875 148.833 91.875 147.688C91.875 146.542 91.875 145.542 91.875 144.688V142.281C91.875 142.073 91.875 141.865 91.875 141.656C91.8958 141.448 91.9375 141.271 92 141.125C92.0833 140.958 92.1979 140.823 92.3438 140.719C92.5104 140.615 92.7396 140.562 93.0312 140.562C93.9479 140.562 94.6146 140.823 95.0312 141.344C95.4688 141.844 95.7396 142.521 95.8438 143.375C95.9479 144.646 96.0208 145.917 96.0625 147.188C96.125 148.438 96.1771 149.708 96.2188 151C96.2604 152.167 96.2917 153.323 96.3125 154.469C96.3542 155.594 96.4271 156.719 96.5312 157.844C96.5521 158.073 96.5729 158.292 96.5938 158.5C96.6146 158.708 96.6458 158.917 96.6875 159.125C96.7292 159.542 96.7708 159.958 96.8125 160.375C96.8542 160.771 96.875 161.188 96.875 161.625ZM106.281 162.219C106.281 162.448 106.229 162.646 106.125 162.812C106.021 162.958 105.885 163.073 105.719 163.156C105.573 163.24 105.406 163.292 105.219 163.312C105.052 163.354 104.885 163.375 104.719 163.375C104.49 163.375 104.219 163.344 103.906 163.281C103.615 163.24 103.323 163.167 103.031 163.062C102.74 162.958 102.469 162.833 102.219 162.688C101.99 162.521 101.812 162.323 101.688 162.094C101.562 161.885 101.448 161.5 101.344 160.938C101.26 160.354 101.188 159.688 101.125 158.938C101.062 158.167 101.01 157.354 100.969 156.5C100.927 155.625 100.885 154.792 100.844 154C100.823 153.208 100.802 152.5 100.781 151.875C100.781 151.229 100.781 150.75 100.781 150.438C100.781 148.979 100.802 147.573 100.844 146.219C100.906 144.844 100.969 143.438 101.031 142C100.927 142 100.823 142.01 100.719 142.031C100.615 142.052 100.51 142.062 100.406 142.062C100.135 142.104 99.8542 142.135 99.5625 142.156C99.2917 142.177 99.0104 142.188 98.7188 142.188C98.3646 142.188 98.0521 142.125 97.7812 142C97.5104 141.875 97.375 141.594 97.375 141.156C97.375 140.635 97.4896 140.219 97.7188 139.906C97.9479 139.594 98.2396 139.354 98.5938 139.188C98.9479 139 99.3333 138.875 99.75 138.812C100.167 138.729 100.573 138.667 100.969 138.625C101.031 138.625 101.073 138.625 101.094 138.625C101.115 138.604 101.156 138.594 101.219 138.594C101.24 138.344 101.26 138.042 101.281 137.688C101.302 137.312 101.323 136.906 101.344 136.469C101.365 135.781 101.396 135.052 101.438 134.281C101.479 133.49 101.521 132.74 101.562 132.031C101.604 131.302 101.656 130.667 101.719 130.125C101.781 129.562 101.844 129.167 101.906 128.938C102.01 128.667 102.125 128.448 102.25 128.281C102.396 128.115 102.656 128.031 103.031 128.031C103.865 128.031 104.51 128.302 104.969 128.844C105.427 129.385 105.656 130.052 105.656 130.844C105.656 131.76 105.625 132.677 105.562 133.594C105.521 134.51 105.479 135.438 105.438 136.375L105.344 137.969C105.865 137.906 106.385 137.812 106.906 137.688C107.406 137.583 107.906 137.49 108.406 137.406C108.927 137.323 109.427 137.281 109.906 137.281C110.323 137.281 110.646 137.396 110.875 137.625C111.104 137.833 111.219 138.146 111.219 138.562C111.219 139.021 111.135 139.469 110.969 139.906C110.802 140.344 110.51 140.677 110.094 140.906H110.125C110.042 140.948 109.792 141.01 109.375 141.094C108.958 141.156 108.479 141.219 107.938 141.281C107.417 141.344 106.896 141.406 106.375 141.469C105.875 141.531 105.5 141.573 105.25 141.594H105.219C105.177 142.76 105.146 143.917 105.125 145.062C105.104 146.188 105.094 147.333 105.094 148.5C105.094 150.104 105.135 151.812 105.219 153.625C105.323 155.417 105.49 157.125 105.719 158.75L105.969 160.156C106.052 160.51 106.125 160.865 106.188 161.219C106.25 161.552 106.281 161.885 106.281 162.219ZM124.031 162.594C124.031 163.01 123.927 163.292 123.719 163.438C123.51 163.604 123.219 163.688 122.844 163.688C121.865 163.688 121.156 163.427 120.719 162.906C120.302 162.385 119.99 161.698 119.781 160.844C119.719 160.552 119.656 160.26 119.594 159.969C119.531 159.656 119.479 159.354 119.438 159.062C119.396 158.792 119.354 158.604 119.312 158.5C119.271 158.396 119.229 158.198 119.188 157.906C118.938 158.51 118.625 159.146 118.25 159.812C117.896 160.458 117.479 161.062 117 161.625C116.521 162.167 115.979 162.615 115.375 162.969C114.792 163.323 114.146 163.5 113.438 163.5C112.688 163.5 112.062 163.323 111.562 162.969C111.062 162.594 110.667 162.135 110.375 161.594C110.104 161.031 109.906 160.417 109.781 159.75C109.677 159.083 109.625 158.448 109.625 157.844C109.625 156.427 109.76 154.896 110.031 153.25C110.323 151.583 110.719 149.927 111.219 148.281C111.719 146.615 112.302 145.021 112.969 143.5C113.635 141.958 114.365 140.615 115.156 139.469V139.5L115.344 139.219C115.573 138.906 115.833 138.573 116.125 138.219C116.438 137.844 116.802 137.656 117.219 137.656C117.615 137.656 117.958 137.833 118.25 138.188C118.542 138.521 118.75 138.875 118.875 139.25C119.417 139.354 119.854 139.49 120.188 139.656C120.521 139.802 120.781 139.99 120.969 140.219C121.156 140.448 121.281 140.719 121.344 141.031C121.406 141.323 121.438 141.646 121.438 142C121.438 142.146 121.438 142.302 121.438 142.469C121.438 142.635 121.427 142.802 121.406 142.969C121.385 143.135 121.375 143.333 121.375 143.562C121.375 143.792 121.375 144 121.375 144.188C121.375 144.396 121.406 144.667 121.469 145C121.552 145.333 121.635 145.677 121.719 146.031L121.938 147.188C122.042 147.792 122.125 148.479 122.188 149.25C122.271 150.021 122.365 150.792 122.469 151.562C122.552 152.354 122.635 153.125 122.719 153.875C122.802 154.604 122.885 155.281 122.969 155.906L123.719 160.531L123.812 161.062C123.854 161.333 123.896 161.583 123.938 161.812C124 162.042 124.031 162.302 124.031 162.594ZM116.875 144.625C116.875 144.583 116.865 144.521 116.844 144.438C116.823 144.333 116.802 144.229 116.781 144.125C116.302 145.146 115.875 146.26 115.5 147.469C115.146 148.656 114.844 149.875 114.594 151.125C114.365 152.354 114.188 153.594 114.062 154.844C113.958 156.073 113.906 157.24 113.906 158.344C113.906 158.448 113.906 158.542 113.906 158.625C113.906 158.708 113.917 158.792 113.938 158.875V158.906C114.438 158.135 114.865 157.125 115.219 155.875C115.594 154.604 115.906 153.281 116.156 151.906C116.406 150.51 116.583 149.167 116.688 147.875C116.812 146.562 116.875 145.479 116.875 144.625ZM128.969 163.5C128.656 163.5 128.312 163.458 127.938 163.375C127.583 163.292 127.24 163.156 126.906 162.969C126.594 162.781 126.323 162.552 126.094 162.281C125.885 161.99 125.781 161.646 125.781 161.25C125.781 160.667 125.802 160.094 125.844 159.531C125.906 158.948 125.969 158.375 126.031 157.812V157.844L126.219 155.75C126.281 155 126.333 154.177 126.375 153.281C126.417 152.385 126.448 151.479 126.469 150.562C126.51 149.625 126.542 148.708 126.562 147.812C126.583 146.917 126.594 146.094 126.594 145.344C126.594 144.906 126.583 144.469 126.562 144.031C126.562 143.573 126.562 143.115 126.562 142.656C126.542 142.26 126.531 141.823 126.531 141.344C126.531 140.844 126.531 140.385 126.531 139.969C126.531 139.531 126.583 139.177 126.688 138.906C126.812 138.615 127.146 138.469 127.688 138.469C128.167 138.469 128.667 138.594 129.188 138.844C129.729 139.094 130.104 139.448 130.312 139.906H130.281C130.385 140.135 130.458 140.51 130.5 141.031C130.562 141.531 130.604 141.979 130.625 142.375C130.979 141.833 131.375 141.26 131.812 140.656C132.271 140.052 132.76 139.5 133.281 139C133.802 138.479 134.354 138.052 134.938 137.719C135.521 137.385 136.146 137.219 136.812 137.219C137.688 137.219 138.354 137.438 138.812 137.875C139.271 138.312 139.604 138.865 139.812 139.531C140.021 140.177 140.135 140.875 140.156 141.625C140.177 142.354 140.188 143.021 140.188 143.625V143.875C140.188 144.125 140.177 144.375 140.156 144.625C140.156 144.854 140.115 145.073 140.031 145.281C139.969 145.469 139.844 145.625 139.656 145.75C139.49 145.875 139.25 145.938 138.938 145.938C138.604 145.938 138.25 145.896 137.875 145.812C137.5 145.708 137.146 145.562 136.812 145.375C136.5 145.188 136.229 144.958 136 144.688C135.771 144.396 135.646 144.062 135.625 143.688C135.625 143.521 135.625 143.354 135.625 143.188C135.625 143.021 135.635 142.854 135.656 142.688C135.656 142.583 135.656 142.458 135.656 142.312C135.677 142.146 135.688 141.99 135.688 141.844C135.021 142.51 134.427 143.333 133.906 144.312C133.406 145.292 132.948 146.333 132.531 147.438C132.135 148.542 131.792 149.656 131.5 150.781C131.208 151.885 130.958 152.885 130.75 153.781V153.875C130.688 154.521 130.646 155.156 130.625 155.781C130.604 156.406 130.583 157.052 130.562 157.719C130.542 158.469 130.51 159.229 130.469 160C130.448 160.771 130.396 161.521 130.312 162.25C130.271 162.646 130.146 162.948 129.938 163.156C129.75 163.385 129.427 163.5 128.969 163.5ZM148.594 154.5C148.594 155.417 148.177 155.875 147.344 155.875C147.094 155.875 146.781 155.844 146.406 155.781C146.052 155.719 145.688 155.625 145.312 155.5C144.938 155.375 144.594 155.229 144.281 155.062C143.99 154.875 143.781 154.667 143.656 154.438C143.49 154.146 143.406 153.844 143.406 153.531C143.406 153.198 143.406 152.854 143.406 152.5C143.281 147.875 143.115 143.281 142.906 138.719C142.719 134.135 142.531 129.521 142.344 124.875C142.302 123.896 142.26 122.917 142.219 121.938C142.177 120.938 142.156 119.938 142.156 118.938C142.156 118.458 142.208 118.104 142.312 117.875C142.417 117.625 142.74 117.5 143.281 117.5C143.552 117.5 143.844 117.542 144.156 117.625C144.469 117.688 144.76 117.792 145.031 117.938C145.323 118.062 145.573 118.229 145.781 118.438C146.01 118.625 146.177 118.854 146.281 119.125C146.344 119.292 146.417 119.844 146.5 120.781C146.604 121.719 146.708 122.927 146.812 124.406C146.917 125.865 147.021 127.521 147.125 129.375C147.229 131.229 147.333 133.146 147.438 135.125C147.562 137.083 147.677 139.042 147.781 141C147.885 142.938 147.979 144.74 148.062 146.406C148.167 148.073 148.25 149.531 148.312 150.781C148.396 152.031 148.469 152.938 148.531 153.5C148.531 153.667 148.542 153.833 148.562 154C148.583 154.167 148.594 154.333 148.594 154.5ZM143.719 159.625C143.719 159.417 143.792 159.26 143.938 159.156C144.083 159.031 144.26 158.948 144.469 158.906C144.698 158.844 144.917 158.812 145.125 158.812C145.354 158.812 145.552 158.812 145.719 158.812C145.927 158.812 146.167 158.823 146.438 158.844C146.729 158.844 147 158.885 147.25 158.969C147.5 159.031 147.708 159.146 147.875 159.312C148.062 159.458 148.156 159.667 148.156 159.938C148.156 160.042 148.146 160.271 148.125 160.625C148.125 160.958 148.115 161.323 148.094 161.719C148.094 162.115 148.073 162.479 148.031 162.812C148.01 163.125 147.99 163.292 147.969 163.312C147.844 163.542 147.646 163.667 147.375 163.688C147.104 163.729 146.844 163.75 146.594 163.75C145.969 163.75 145.5 163.719 145.188 163.656C144.875 163.594 144.646 163.469 144.5 163.281C144.375 163.094 144.281 162.833 144.219 162.5C144.177 162.167 144.115 161.729 144.031 161.188C143.99 160.938 143.927 160.688 143.844 160.438C143.76 160.188 143.719 159.917 143.719 159.625Z" fill="#2D2A2A"/>
<path d="M92.8268 195.936C91.8957 195.989 90.9643 196.045 90.033 196.105C85.818 196.135 81.6065 196.251 77.3992 196.605C75.2149 196.789 72.6009 195.782 70.4882 196.605C70.2532 196.696 70.5627 198.034 70.4882 198.291C70.3432 198.792 70.3906 199.331 70.3906 199.856C70.3906 201.255 70 202.682 70 204.125C70 210.297 70.4358 216.459 70.3906 222.645C70.3902 222.701 70.2612 223.958 70.3689 224.01C70.8829 224.255 72.3354 224.088 72.7015 224.103C82.4874 224.527 92.2406 225 102.038 225C108.449 225 114.865 224.968 121.274 224.732C123.773 224.64 126.324 224.571 128.803 224.09C129.137 224.025 129.953 224.066 129.953 223.461C129.953 220.767 130.084 218.023 129.91 215.339C129.635 211.113 129.758 206.852 129.758 202.613C129.758 201.787 130.26 195.632 129.465 195.414C126.756 194.671 123.539 195.153 120.818 195.16C111.485 195.182 102.15 195.404 92.8268 195.936Z" fill="#2D2A2A"/>
<path d="M77.8115 197.568C78.7074 197.101 79.9774 197.052 80.8709 196.939C84.8447 196.441 88.8377 196.163 92.8268 195.936C102.15 195.404 111.485 195.182 120.818 195.16C123.539 195.153 126.756 194.671 129.465 195.414C130.26 195.632 129.758 201.787 129.758 202.613C129.758 206.852 129.635 211.113 129.91 215.339C130.084 218.023 129.953 220.767 129.953 223.461C129.953 224.066 129.137 224.025 128.803 224.09C126.324 224.571 123.773 224.64 121.274 224.732C114.865 224.968 108.449 225 102.038 225C92.2406 225 82.4874 224.527 72.7015 224.103C72.3354 224.088 70.8829 224.255 70.3689 224.01C70.2612 223.958 70.3902 222.701 70.3906 222.645C70.4358 216.459 70 210.297 70 204.125C70 202.682 70.3906 201.255 70.3906 199.856C70.3906 199.331 70.3432 198.792 70.4882 198.291C70.5627 198.034 70.2532 196.696 70.4882 196.605C72.6009 195.782 75.2149 196.789 77.3992 196.605C85.4645 195.927 93.5454 196.123 101.636 196.123" stroke="#2D2A2A" stroke-width="5" stroke-linecap="round"/>
<path d="M125.462 200.738C125.693 202.735 125.924 204.735 125.924 206.745C125.924 207.16 125.693 208.341 125.693 207.322C125.693 206.571 126.095 204.128 125.641 203.562C125.053 202.826 125.664 201.684 125 200.854C124.289 199.966 122.973 201.095 122.689 201.662" stroke="#DAC285" stroke-width="5" stroke-linecap="round"/>
<path d="M84.8018 221.299C88.5378 220.604 92.6304 221.068 96.417 221.068C99.5529 221.068 102.689 221.068 105.825 221.068C107.75 221.068 109.675 221.068 111.6 221.068" stroke="#DAC285" stroke-width="5" stroke-linecap="round"/>
<path d="M118.531 220.837H128.003" stroke="#DAC285" stroke-width="5" stroke-linecap="round"/>
<path d="M71.8647 221.068H78.3334" stroke="#DAC285" stroke-width="5" stroke-linecap="round"/>
<path d="M72.7886 213.907H74.8678" stroke="#DAC285" stroke-width="5" stroke-linecap="round"/>
<path d="M73.4819 205.821H83.4159" stroke="#DAC285" stroke-width="5" stroke-linecap="round"/>
<path d="M76.9473 199.583H77.8714" stroke="#DAC285" stroke-width="5" stroke-linecap="round"/>
<path d="M86.6504 199.814H87.3435" stroke="#DAC285" stroke-width="5" stroke-linecap="round"/>
<path d="M95.4287 199.352H96.8148" stroke="#DAC285" stroke-width="5" stroke-linecap="round"/>
<path d="M105.132 199.121H105.825" stroke="#DAC285" stroke-width="5" stroke-linecap="round"/>
<path d="M113.449 199.121H114.373" stroke="#DAC285" stroke-width="5" stroke-linecap="round"/>
<path d="M121.303 200.045C121.518 200.018 122.089 199.639 122.227 199.467C122.431 199.212 123.192 199.351 123.498 199.351C124.382 199.351 125.693 199.267 125.693 200.507" stroke="#DAC285" stroke-width="5" stroke-linecap="round"/>
<path d="M87.3433 213.907H89.1914" stroke="#DAC285" stroke-width="5" stroke-linecap="round"/>
<path d="M97.7393 213.675H100.512" stroke="#DAC285" stroke-width="5" stroke-linecap="round"/>
<path d="M106.749 213.675H110.907" stroke="#DAC285" stroke-width="5" stroke-linecap="round"/>
<path d="M116.914 213.907H119.917" stroke="#DAC285" stroke-width="5" stroke-linecap="round"/>
<path d="M93.3496 206.514H97.277" stroke="#DAC285" stroke-width="5" stroke-linecap="round"/>
<path d="M106.749 206.514H111.369" stroke="#DAC285" stroke-width="5" stroke-linecap="round"/>
<path d="M117.145 206.514H117.607" stroke="#DAC285" stroke-width="5" stroke-linecap="round"/>
<path d="M99.9541 4C102.752 11.7362 100.659 20.6306 103.272 28.4711" stroke="#E46746" stroke-width="7" stroke-linecap="round"/>
<path d="M90 21.4209C94.3595 24.7257 96.9145 29.5367 100.968 33.0112C102.805 34.5854 108.729 23.9758 109.494 22.6652" stroke="#E46746" stroke-width="7" stroke-linecap="round"/>
<defs>
<filter id="filter0_d_187_2235" x="0" y="31" width="214" height="214" filterUnits="userSpaceOnUse" color-interpolation-filters="sRGB">
<feFlood flood-opacity="0" result="BackgroundImageFix"/>
<feColorMatrix in="SourceAlpha" type="matrix" values="0 0 0 0 0 0 0 0 0 0 0 0 0 0 0 0 0 0 127 0" result="hardAlpha"/>
<feOffset dx="7" dy="5"/>
<feGaussianBlur stdDeviation="3.5"/>
<feComposite in2="hardAlpha" operator="out"/>
<feColorMatrix type="matrix" values="0 0 0 0 0 0 0 0 0 0 0 0 0 0 0 0 0 0 0.25 0"/>
<feBlend mode="normal" in2="BackgroundImageFix" result="effect1_dropShadow_187_2235"/>
<feBlend mode="normal" in="SourceGraphic" in2="effect1_dropShadow_187_2235" result="shape"/>
</filter>
</defs>
</svg>
