<svg width="133" height="134" viewBox="0 0 133 134" fill="none" xmlns="http://www.w3.org/2000/svg">
<g filter="url(#filter0_d_145_1142)">
<path d="M4 126V0H129V107.5L110.5 126H4Z" fill="#D5C74A"/>
<g filter="url(#filter1_d_145_1142)">
<path d="M111 107.5H128.5L111 125.5V107.5Z" fill="#D9D9D9"/>
</g>
</g>
<path d="M20.1074 51.502C19.9082 51.502 19.7559 51.4023 19.6504 51.2031C19.5566 51.0039 19.5098 50.7227 19.5098 50.3594C19.5098 50.3008 19.5098 50.2363 19.5098 50.166C19.5098 50.084 19.5215 49.9316 19.5449 49.709C19.5801 48.8652 19.9961 48.373 20.793 48.2324L21.1973 48.1973C21.4668 48.1621 21.6777 48.0801 21.8301 47.9512C21.9824 47.8105 22.0938 47.6172 22.1641 47.3711C22.3633 46.7031 22.5625 46.0293 22.7617 45.3496C22.9609 44.6699 23.1719 43.9961 23.3945 43.3281C23.5117 42.9531 23.6289 42.5547 23.7461 42.1328C23.875 41.6992 24.0098 41.2715 24.1504 40.8496C24.3027 40.4277 24.4727 40.0117 24.6602 39.6016C24.8594 39.1914 25.082 38.8164 25.3281 38.4766C25.4336 38.3359 25.5801 38.1895 25.7676 38.0371C25.9551 37.8848 26.166 37.75 26.4004 37.6328C26.6465 37.5039 26.9043 37.4043 27.1738 37.334C27.4551 37.252 27.7305 37.2109 28 37.2109C28.3516 37.2109 28.6973 37.3223 29.0371 37.5449C29.4941 37.8613 29.9453 38.2422 30.3906 38.6875C30.8359 39.1328 31.334 39.7012 31.8848 40.3926C32.4355 41.084 33.0742 41.9219 33.8008 42.9062C34.5273 43.8789 35.4004 45.0566 36.4199 46.4395C36.5723 46.6152 36.7305 46.75 36.8945 46.8438C37.0703 46.9258 37.2754 46.9668 37.5098 46.9668H38.5117C38.9219 46.9668 39.2383 47.0664 39.4609 47.2656C39.6953 47.4531 39.8125 47.7168 39.8125 48.0566C39.8125 48.127 39.8066 48.209 39.7949 48.3027C39.7949 48.3965 39.7773 48.4902 39.7422 48.584L39.4082 49.5684C39.3848 49.6621 39.3672 49.7441 39.3555 49.8145C39.3438 49.8848 39.3379 49.9551 39.3379 50.0254C39.3379 50.2715 39.4199 50.5234 39.584 50.7812L41.4648 53.3477C41.6758 53.6641 41.7812 53.9629 41.7812 54.2441C41.7812 54.666 41.541 55.0352 41.0605 55.3516L40.3926 55.8262C40.2285 55.9316 40.0703 56.0137 39.918 56.0723C39.7773 56.1309 39.6309 56.1602 39.4785 56.1602C39.2676 56.1602 39.0684 56.0957 38.8809 55.9668C38.7051 55.8496 38.5352 55.6855 38.3711 55.4746C37.8086 54.6777 37.2402 53.8926 36.666 53.1191C36.1035 52.3457 35.5293 51.5781 34.9434 50.8164C34.6738 50.4414 34.3164 50.2539 33.8711 50.2539C32.4414 50.3125 31.0234 50.3945 29.6172 50.5C28.2227 50.5938 26.8223 50.7109 25.416 50.8516C24.9121 50.8984 24.5957 51.168 24.4668 51.6602L23.6758 54.5605C23.4648 55.334 22.9961 55.7207 22.2695 55.7207H21.9883L21.4434 55.6504C21.0449 55.6152 20.7402 55.4922 20.5293 55.2812C20.3301 55.0703 20.2305 54.7949 20.2305 54.4551C20.2305 54.3848 20.2363 54.3086 20.248 54.2266C20.2598 54.1445 20.2773 54.0566 20.3008 53.9629C20.3594 53.7285 20.418 53.4883 20.4766 53.2422C20.5469 52.9961 20.6172 52.7559 20.6875 52.5215C20.7109 52.4277 20.7285 52.3457 20.7402 52.2754C20.752 52.1934 20.7578 52.1172 20.7578 52.0469C20.7578 51.6836 20.6172 51.502 20.3359 51.502H20.1074ZM28.4746 42.2207C28.3574 42.1152 28.252 42.0273 28.1582 41.957C28.0645 41.8867 27.9648 41.8516 27.8594 41.8516C27.5664 41.8516 27.3613 42.0566 27.2441 42.4668C27.0098 43.1582 26.7812 43.8438 26.5586 44.5234C26.3477 45.1914 26.1309 45.877 25.9082 46.5801C25.8848 46.6387 25.873 46.6914 25.873 46.7383C25.873 46.7852 25.873 46.8379 25.873 46.8965C25.873 47.3301 26.1016 47.5469 26.5586 47.5469H26.7344C27.4375 47.4531 28.1406 47.3828 28.8438 47.3359C29.5469 47.2773 30.25 47.2305 30.9531 47.1953C31.1875 47.1719 31.3691 47.1133 31.498 47.0195C31.6387 46.9141 31.709 46.7793 31.709 46.6152C31.709 46.4629 31.6387 46.2812 31.498 46.0703C31.0059 45.4141 30.5078 44.7695 30.0039 44.1367C29.5117 43.4922 29.002 42.8535 28.4746 42.2207ZM42.3522 40.8145C42.3522 40.6387 42.4284 40.4688 42.5807 40.3047C42.733 40.1289 42.9323 39.9766 43.1784 39.8477C43.4245 39.707 43.6998 39.5957 44.0045 39.5137C44.3209 39.4199 44.6373 39.373 44.9538 39.373C45.1295 39.373 45.276 39.4199 45.3932 39.5137C45.5221 39.6074 45.6334 39.7891 45.7272 40.0586C45.8209 40.3164 45.903 40.6855 45.9733 41.166C46.0553 41.6348 46.1315 42.25 46.2018 43.0117C46.2487 43.2461 46.2897 43.4277 46.3248 43.5566C46.3717 43.6738 46.4303 43.7324 46.5006 43.7324C46.6061 43.7324 46.7116 43.5508 46.817 43.1875C47.6725 40.7148 48.9088 39.4785 50.526 39.4785C51.276 39.4785 51.9557 39.7129 52.5651 40.1816C53.1862 40.6504 53.7604 41.418 54.2877 42.4844C54.8268 43.5391 55.3366 44.9336 55.817 46.668C56.2975 48.3906 56.778 50.5176 57.2584 53.0488C57.2819 53.1777 57.2995 53.2949 57.3112 53.4004C57.3229 53.5059 57.3288 53.6055 57.3288 53.6992C57.3288 53.9688 57.2643 54.2031 57.1354 54.4023C57.0182 54.5898 56.86 54.748 56.6608 54.877C56.4616 54.9941 56.2389 55.082 55.9928 55.1406C55.7467 55.2109 55.5006 55.2461 55.2545 55.2461C54.7623 55.2461 54.4049 55.1934 54.1823 55.0879C53.9713 54.9824 53.8366 54.7832 53.778 54.4902C53.4381 52.709 53.1041 51.127 52.776 49.7441C52.4596 48.3613 52.1432 47.2012 51.8268 46.2637C51.5221 45.3145 51.2174 44.5938 50.9127 44.1016C50.608 43.6094 50.3034 43.3633 49.9987 43.3633C49.694 43.3633 49.4069 43.5566 49.1373 43.9434C48.8795 44.3184 48.6276 44.9102 48.3815 45.7188C48.1354 46.5273 47.8952 47.5527 47.6608 48.7949C47.4381 50.0371 47.2213 51.5195 47.0104 53.2422C46.9518 53.7109 46.7174 54.0859 46.3073 54.3672C45.8971 54.6484 45.3756 54.7891 44.7428 54.7891C44.3209 54.7891 43.9987 54.7012 43.776 54.5254C43.5534 54.3496 43.4303 54.1094 43.4069 53.8047C43.3014 51.3672 43.1842 49.3633 43.0553 47.793C42.9381 46.2109 42.8268 44.9453 42.7213 43.9961C42.6159 43.0352 42.528 42.3203 42.4577 41.8516C42.3873 41.3828 42.3522 41.0371 42.3522 40.8145ZM59.763 49.1641C59.763 48.9648 59.7864 48.7422 59.8333 48.4961C59.8802 48.25 59.9036 47.9805 59.9036 47.6875C59.9036 47.4883 59.8157 47.3359 59.6399 47.2305C59.4759 47.125 59.2884 47.0078 59.0774 46.8789C58.8665 46.75 58.6731 46.5859 58.4973 46.3867C58.3333 46.1875 58.2513 45.9004 58.2513 45.5254C58.2513 45.2559 58.3216 44.9863 58.4622 44.7168C58.6145 44.4473 58.8313 44.2012 59.1126 43.9785C59.804 43.4629 60.5188 43 61.2571 42.5898C62.0071 42.1797 62.7513 41.834 63.4895 41.5527C64.2395 41.2715 64.9778 41.0547 65.7044 40.9023C66.4309 40.75 67.1282 40.6738 67.7962 40.6738C68.9212 40.6738 69.9759 40.8848 70.9602 41.3066C71.9563 41.7168 72.8177 42.2852 73.5442 43.0117C74.2825 43.7266 74.8626 44.5703 75.2845 45.543C75.718 46.5039 75.9348 47.5352 75.9348 48.6367C75.9348 49.7148 75.7063 50.7402 75.2493 51.7129C74.804 52.6738 74.2005 53.5176 73.4388 54.2441C72.677 54.9707 71.7805 55.5449 70.7493 55.9668C69.7298 56.4004 68.6516 56.6172 67.5149 56.6172C66.4016 56.6172 65.3704 56.4297 64.4212 56.0547C63.472 55.6797 62.6516 55.1641 61.9602 54.5078C61.2688 53.8398 60.7298 53.0547 60.343 52.1523C59.9563 51.2383 59.763 50.2422 59.763 49.1641ZM67.9016 53.4531C68.3938 53.4531 68.9036 53.3535 69.4309 53.1543C69.9583 52.9551 70.4388 52.668 70.8723 52.293C71.3177 51.9062 71.6809 51.4375 71.9622 50.8867C72.2552 50.3359 72.4016 49.7148 72.4016 49.0234C72.4016 48.3203 72.2727 47.6641 72.0149 47.0547C71.7571 46.4453 71.3997 45.918 70.9427 45.4727C70.4973 45.0156 69.9641 44.6582 69.343 44.4004C68.7337 44.1426 68.0716 44.0137 67.3567 44.0137C66.0559 44.0137 65.0598 44.3535 64.3684 45.0332C63.677 45.7012 63.3313 46.7324 63.3313 48.127C63.3313 48.8887 63.4427 49.5977 63.6653 50.2539C63.8997 50.8984 64.222 51.4609 64.6321 51.9414C65.0423 52.4102 65.5227 52.7793 66.0735 53.0488C66.636 53.3184 67.2454 53.4531 67.9016 53.4531ZM80.2323 34.6973C80.2323 34.0762 80.4081 33.6426 80.7597 33.3965C81.1113 33.1387 81.6913 33.0098 82.4999 33.0098C82.7929 33.0098 83.039 33.0391 83.2382 33.0977C83.4491 33.1445 83.6249 33.2383 83.7655 33.3789C83.9179 33.5195 84.0351 33.707 84.1171 33.9414C84.2109 34.1641 84.287 34.4512 84.3456 34.8027C84.4863 35.8926 84.6386 37.0176 84.8027 38.1777C84.9784 39.3379 85.1601 40.5039 85.3476 41.6758C85.4179 42.2031 85.6933 42.4668 86.1738 42.4668C86.3027 42.4668 86.5136 42.4551 86.8066 42.4316C87.1113 42.3965 87.4687 42.3613 87.8788 42.3262C88.289 42.2793 88.7284 42.2324 89.1972 42.1855C89.6777 42.1387 90.1523 42.0977 90.621 42.0625C91.1015 42.0156 91.5527 41.9805 91.9745 41.957C92.4081 41.9219 92.789 41.9043 93.1171 41.9043C93.3749 41.9043 93.58 41.957 93.7323 42.0625C93.8847 42.1562 94.0019 42.2852 94.0839 42.4492C94.1777 42.6016 94.2363 42.7773 94.2597 42.9766C94.2948 43.1641 94.3124 43.3574 94.3124 43.5566C94.3124 43.7324 94.2773 43.9141 94.207 44.1016C94.1484 44.2891 94.0605 44.459 93.9433 44.6113C93.8378 44.752 93.703 44.8691 93.539 44.9629C93.3749 45.0566 93.1874 45.1035 92.9765 45.1035C91.957 45.1035 90.9257 45.1387 89.8827 45.209C88.8515 45.2676 87.8202 45.3496 86.789 45.4551C86.2616 45.5254 85.998 45.7891 85.998 46.2461C85.998 46.2812 86.0038 46.3281 86.0155 46.3867C86.0273 46.4336 86.0331 46.4746 86.0331 46.5098C86.1738 47.5293 86.3027 48.4844 86.4198 49.375C86.5488 50.2656 86.6542 51.0625 86.7363 51.7656C86.83 52.457 86.9003 53.0371 86.9472 53.5059C87.0058 53.9629 87.0351 54.2676 87.0351 54.4199C87.0351 54.8418 86.9941 55.1934 86.912 55.4746C86.83 55.7676 86.6952 56.002 86.5077 56.1777C86.3202 56.3652 86.0683 56.4941 85.7519 56.5645C85.4472 56.6465 85.0605 56.6875 84.5917 56.6875C84.1464 56.6875 83.8183 56.582 83.6073 56.3711C83.3964 56.1602 83.2792 55.8379 83.2558 55.4043C83.1855 54.0215 83.0741 52.6328 82.9218 51.2383C82.7695 49.832 82.5937 48.4316 82.3945 47.0371C82.289 46.5332 82.0253 46.2812 81.6034 46.2812C81.5683 46.2812 81.5273 46.2871 81.4804 46.2988C81.4335 46.3105 81.3925 46.3164 81.3573 46.3164C80.6308 46.4805 79.9452 46.6445 79.3007 46.8086C78.6562 46.9727 78.0527 47.1484 77.4902 47.3359C77.1738 47.4414 76.8925 47.5176 76.6464 47.5645C76.4003 47.5996 76.1777 47.6172 75.9784 47.6172C75.7089 47.6172 75.5097 47.5 75.3808 47.2656C75.2519 47.0195 75.1874 46.7148 75.1874 46.3516C75.1874 46.2227 75.1991 46.0762 75.2226 45.9121C75.246 45.7363 75.2929 45.5664 75.3632 45.4023C75.4218 45.2266 75.5155 45.0684 75.6445 44.9277C75.7616 44.7754 75.9257 44.6523 76.1366 44.5586C76.6288 44.3594 77.2851 44.1543 78.1054 43.9434C78.9257 43.7207 79.8515 43.5156 80.8827 43.3281C81.1171 43.2695 81.2988 43.1758 81.4277 43.0469C81.5683 42.9062 81.6386 42.7012 81.6386 42.4316C81.6386 42.373 81.6386 42.3145 81.6386 42.2559C81.6386 42.1855 81.6269 42.1152 81.6034 42.0449C81.4159 40.9668 81.2343 39.9883 81.0585 39.1094C80.8945 38.2188 80.748 37.457 80.6191 36.8242C80.5019 36.1914 80.4081 35.6934 80.3378 35.3301C80.2675 34.9668 80.2323 34.7559 80.2323 34.6973ZM104.692 39.6367C105.336 39.6367 105.958 39.7363 106.555 39.9355C107.153 40.1348 107.68 40.4102 108.137 40.7617C108.594 41.1133 108.958 41.5352 109.227 42.0273C109.508 42.5195 109.649 43.0645 109.649 43.6621C109.649 43.9082 109.59 44.1484 109.473 44.3828C109.368 44.6055 109.221 44.8047 109.034 44.9805C108.846 45.1445 108.629 45.2793 108.383 45.3848C108.149 45.4785 107.903 45.5254 107.645 45.5254C107.622 45.5254 107.598 45.5312 107.575 45.543C107.563 45.543 107.545 45.543 107.522 45.543C107.499 45.5547 107.475 45.5605 107.452 45.5605L107.522 46.9668C107.569 48.6426 107.803 49.8672 108.225 50.6406C108.659 51.4141 109.221 51.8008 109.913 51.8008C110.159 51.8008 110.376 51.7773 110.563 51.7305C110.762 51.6836 110.944 51.6309 111.108 51.5723C111.284 51.502 111.448 51.4434 111.6 51.3965C111.753 51.3496 111.905 51.3262 112.057 51.3262C112.327 51.3262 112.561 51.4434 112.76 51.6777C112.971 51.9121 113.077 52.1934 113.077 52.5215C113.077 52.8496 112.948 53.1777 112.69 53.5059C112.444 53.834 112.116 54.1328 111.706 54.4023C111.295 54.6602 110.833 54.8711 110.317 55.0352C109.801 55.1992 109.28 55.2812 108.753 55.2812C107.838 55.2812 107.036 54.9062 106.344 54.1562C105.653 53.3945 105.161 52.2812 104.868 50.8164C104.797 50.582 104.704 50.4648 104.586 50.4648C104.446 50.4648 104.323 50.5352 104.217 50.6758C103.057 52.1406 101.821 53.2422 100.508 53.9805C99.1959 54.707 97.9009 55.0703 96.6236 55.0703C96.0259 55.0703 95.4869 54.9824 95.0064 54.8066C94.5259 54.6309 94.1158 54.3848 93.7759 54.0684C93.4478 53.7402 93.19 53.3477 93.0025 52.8906C92.8267 52.4219 92.7388 51.9004 92.7388 51.3262C92.7388 50.5176 92.9146 49.668 93.2662 48.7773C93.6295 47.8867 94.1158 47.0078 94.7252 46.1406C95.3345 45.2734 96.0377 44.4473 96.8345 43.6621C97.6431 42.877 98.4869 42.1855 99.3658 41.5879C100.256 40.9902 101.159 40.5156 102.073 40.1641C102.987 39.8125 103.86 39.6367 104.692 39.6367ZM104.112 45.7188C104.323 45.3203 104.516 45.0332 104.692 44.8574C104.868 44.6699 105.12 44.5469 105.448 44.4883C105.706 44.4531 105.835 44.3711 105.835 44.2422C105.835 44.1484 105.799 44.0488 105.729 43.9434C105.506 43.6387 105.272 43.375 105.026 43.1523C104.78 42.918 104.452 42.8008 104.042 42.8008C103.596 42.8008 103.098 42.9297 102.547 43.1875C101.997 43.4453 101.434 43.791 100.86 44.2246C100.297 44.6465 99.7408 45.1328 99.19 45.6836C98.6509 46.2227 98.1705 46.7793 97.7486 47.3535C97.3267 47.9277 96.9869 48.4961 96.7291 49.0586C96.4713 49.6211 96.3423 50.125 96.3423 50.5703C96.3423 50.9688 96.4478 51.2793 96.6588 51.502C96.8814 51.7246 97.1802 51.8359 97.5552 51.8359C98.5162 51.8359 99.565 51.3262 100.702 50.3066C101.838 49.2871 102.975 47.7578 104.112 45.7188ZM31.498 81.6367C32.1426 81.6367 32.7637 81.7363 33.3613 81.9355C33.959 82.1348 34.4863 82.4102 34.9434 82.7617C35.4004 83.1133 35.7637 83.5352 36.0332 84.0273C36.3145 84.5195 36.4551 85.0645 36.4551 85.6621C36.4551 85.9082 36.3965 86.1484 36.2793 86.3828C36.1738 86.6055 36.0273 86.8047 35.8398 86.9805C35.6523 87.1445 35.4355 87.2793 35.1895 87.3848C34.9551 87.4785 34.709 87.5254 34.4512 87.5254C34.4277 87.5254 34.4043 87.5312 34.3809 87.543C34.3691 87.543 34.3516 87.543 34.3281 87.543C34.3047 87.5547 34.2812 87.5605 34.2578 87.5605L34.3281 88.9668C34.375 90.6426 34.6094 91.8672 35.0312 92.6406C35.4648 93.4141 36.0273 93.8008 36.7188 93.8008C36.9648 93.8008 37.1816 93.7773 37.3691 93.7305C37.5684 93.6836 37.75 93.6309 37.9141 93.5723C38.0898 93.502 38.2539 93.4434 38.4062 93.3965C38.5586 93.3496 38.7109 93.3262 38.8633 93.3262C39.1328 93.3262 39.3672 93.4434 39.5664 93.6777C39.7773 93.9121 39.8828 94.1934 39.8828 94.5215C39.8828 94.8496 39.7539 95.1777 39.4961 95.5059C39.25 95.834 38.9219 96.1328 38.5117 96.4023C38.1016 96.6602 37.6387 96.8711 37.123 97.0352C36.6074 97.1992 36.0859 97.2812 35.5586 97.2812C34.6445 97.2812 33.8418 96.9062 33.1504 96.1562C32.459 95.3945 31.9668 94.2812 31.6738 92.8164C31.6035 92.582 31.5098 92.4648 31.3926 92.4648C31.252 92.4648 31.1289 92.5352 31.0234 92.6758C29.8633 94.1406 28.627 95.2422 27.3145 95.9805C26.002 96.707 24.707 97.0703 23.4297 97.0703C22.832 97.0703 22.293 96.9824 21.8125 96.8066C21.332 96.6309 20.9219 96.3848 20.582 96.0684C20.2539 95.7402 19.9961 95.3477 19.8086 94.8906C19.6328 94.4219 19.5449 93.9004 19.5449 93.3262C19.5449 92.5176 19.7207 91.668 20.0723 90.7773C20.4355 89.8867 20.9219 89.0078 21.5312 88.1406C22.1406 87.2734 22.8438 86.4473 23.6406 85.6621C24.4492 84.877 25.293 84.1855 26.1719 83.5879C27.0625 82.9902 27.9648 82.5156 28.8789 82.1641C29.793 81.8125 30.666 81.6367 31.498 81.6367ZM30.918 87.7188C31.1289 87.3203 31.3223 87.0332 31.498 86.8574C31.6738 86.6699 31.9258 86.5469 32.2539 86.4883C32.5117 86.4531 32.6406 86.3711 32.6406 86.2422C32.6406 86.1484 32.6055 86.0488 32.5352 85.9434C32.3125 85.6387 32.0781 85.375 31.832 85.1523C31.5859 84.918 31.2578 84.8008 30.8477 84.8008C30.4023 84.8008 29.9043 84.9297 29.3535 85.1875C28.8027 85.4453 28.2402 85.791 27.666 86.2246C27.1035 86.6465 26.5469 87.1328 25.9961 87.6836C25.457 88.2227 24.9766 88.7793 24.5547 89.3535C24.1328 89.9277 23.793 90.4961 23.5352 91.0586C23.2773 91.6211 23.1484 92.125 23.1484 92.5703C23.1484 92.9688 23.2539 93.2793 23.4648 93.502C23.6875 93.7246 23.9863 93.8359 24.3613 93.8359C25.3223 93.8359 26.3711 93.3262 27.5078 92.3066C28.6445 91.2871 29.7812 89.7578 30.918 87.7188ZM40.9811 85.1523C40.9811 84.9414 41.0455 84.7539 41.1745 84.5898C41.3034 84.4141 41.4733 84.2676 41.6842 84.1504C41.8952 84.0215 42.1354 83.9219 42.4049 83.8516C42.6862 83.7812 42.9674 83.7461 43.2487 83.7461C43.3541 83.7461 43.4772 83.7578 43.6178 83.7812C43.7584 83.8047 43.8991 83.8457 44.0397 83.9043C44.1803 83.9629 44.2975 84.0391 44.3913 84.1328C44.4967 84.2266 44.5612 84.3379 44.5846 84.4668C44.7838 86.5527 44.9538 88.6328 45.0944 90.707C45.235 92.7695 45.3053 94.8555 45.3053 96.9648C45.3053 97.2109 45.2233 97.4395 45.0592 97.6504C44.9069 97.8613 44.7077 98.043 44.4616 98.1953C44.2272 98.3594 43.9635 98.4883 43.6705 98.582C43.3893 98.6758 43.1198 98.7227 42.862 98.7227C42.5338 98.7227 42.2584 98.6465 42.0358 98.4941C41.8131 98.3418 41.7018 98.084 41.7018 97.7207C41.7018 95.5996 41.6373 93.502 41.5084 91.4277C41.3795 89.3535 41.2038 87.2617 40.9811 85.1523ZM47.8366 76.0996C47.8366 76.2754 47.7487 76.4453 47.5729 76.6094C47.4088 76.7734 47.1803 76.9551 46.8873 77.1543C46.6061 77.3535 46.2721 77.5879 45.8854 77.8574C45.4987 78.1152 45.0885 78.4375 44.6549 78.8242C44.233 79.1992 43.7936 79.6562 43.3366 80.1953C42.8795 80.7227 42.4342 81.3496 42.0006 82.0762C41.9069 82.2402 41.7721 82.3516 41.5963 82.4102C41.4323 82.4688 41.2448 82.498 41.0338 82.498C40.8346 82.498 40.6354 82.4746 40.4362 82.4277C40.2487 82.3691 40.0729 82.2988 39.9088 82.2168C39.7565 82.123 39.6276 82.0176 39.5221 81.9004C39.4284 81.7715 39.3815 81.6367 39.3815 81.4961C39.3815 81.1797 39.4752 80.7871 39.6627 80.3184C39.862 79.8379 40.1198 79.3398 40.4362 78.8242C40.7643 78.2969 41.1393 77.7754 41.5612 77.2598C41.9948 76.7324 42.4459 76.2637 42.9147 75.8535C43.3952 75.4316 43.8756 75.0918 44.3561 74.834C44.8483 74.5762 45.3229 74.4473 45.7799 74.4473C45.9909 74.4473 46.2135 74.5059 46.4479 74.623C46.694 74.7402 46.9166 74.8867 47.1159 75.0625C47.3268 75.2266 47.4967 75.4082 47.6256 75.6074C47.7663 75.7949 47.8366 75.959 47.8366 76.0996Z" fill="#363636"/>
<path d="M20.1074 51.502C19.9082 51.502 19.7559 51.4023 19.6504 51.2031C19.5566 51.0039 19.5098 50.7227 19.5098 50.3594C19.5098 50.3008 19.5098 50.2363 19.5098 50.166C19.5098 50.084 19.5215 49.9316 19.5449 49.709C19.5801 48.8652 19.9961 48.373 20.793 48.2324L21.1973 48.1973C21.4668 48.1621 21.6777 48.0801 21.8301 47.9512C21.9824 47.8105 22.0938 47.6172 22.1641 47.3711C22.3633 46.7031 22.5625 46.0293 22.7617 45.3496C22.9609 44.6699 23.1719 43.9961 23.3945 43.3281C23.5117 42.9531 23.6289 42.5547 23.7461 42.1328C23.875 41.6992 24.0098 41.2715 24.1504 40.8496C24.3027 40.4277 24.4727 40.0117 24.6602 39.6016C24.8594 39.1914 25.082 38.8164 25.3281 38.4766C25.4336 38.3359 25.5801 38.1895 25.7676 38.0371C25.9551 37.8848 26.166 37.75 26.4004 37.6328C26.6465 37.5039 26.9043 37.4043 27.1738 37.334C27.4551 37.252 27.7305 37.2109 28 37.2109C28.3516 37.2109 28.6973 37.3223 29.0371 37.5449C29.4941 37.8613 29.9453 38.2422 30.3906 38.6875C30.8359 39.1328 31.334 39.7012 31.8848 40.3926C32.4355 41.084 33.0742 41.9219 33.8008 42.9062C34.5273 43.8789 35.4004 45.0566 36.4199 46.4395C36.5723 46.6152 36.7305 46.75 36.8945 46.8438C37.0703 46.9258 37.2754 46.9668 37.5098 46.9668H38.5117C38.9219 46.9668 39.2383 47.0664 39.4609 47.2656C39.6953 47.4531 39.8125 47.7168 39.8125 48.0566C39.8125 48.127 39.8066 48.209 39.7949 48.3027C39.7949 48.3965 39.7773 48.4902 39.7422 48.584L39.4082 49.5684C39.3848 49.6621 39.3672 49.7441 39.3555 49.8145C39.3438 49.8848 39.3379 49.9551 39.3379 50.0254C39.3379 50.2715 39.4199 50.5234 39.584 50.7812L41.4648 53.3477C41.6758 53.6641 41.7812 53.9629 41.7812 54.2441C41.7812 54.666 41.541 55.0352 41.0605 55.3516L40.3926 55.8262C40.2285 55.9316 40.0703 56.0137 39.918 56.0723C39.7773 56.1309 39.6309 56.1602 39.4785 56.1602C39.2676 56.1602 39.0684 56.0957 38.8809 55.9668C38.7051 55.8496 38.5352 55.6855 38.3711 55.4746C37.8086 54.6777 37.2402 53.8926 36.666 53.1191C36.1035 52.3457 35.5293 51.5781 34.9434 50.8164C34.6738 50.4414 34.3164 50.2539 33.8711 50.2539C32.4414 50.3125 31.0234 50.3945 29.6172 50.5C28.2227 50.5938 26.8223 50.7109 25.416 50.8516C24.9121 50.8984 24.5957 51.168 24.4668 51.6602L23.6758 54.5605C23.4648 55.334 22.9961 55.7207 22.2695 55.7207H21.9883L21.4434 55.6504C21.0449 55.6152 20.7402 55.4922 20.5293 55.2812C20.3301 55.0703 20.2305 54.7949 20.2305 54.4551C20.2305 54.3848 20.2363 54.3086 20.248 54.2266C20.2598 54.1445 20.2773 54.0566 20.3008 53.9629C20.3594 53.7285 20.418 53.4883 20.4766 53.2422C20.5469 52.9961 20.6172 52.7559 20.6875 52.5215C20.7109 52.4277 20.7285 52.3457 20.7402 52.2754C20.752 52.1934 20.7578 52.1172 20.7578 52.0469C20.7578 51.6836 20.6172 51.502 20.3359 51.502H20.1074ZM28.4746 42.2207C28.3574 42.1152 28.252 42.0273 28.1582 41.957C28.0645 41.8867 27.9648 41.8516 27.8594 41.8516C27.5664 41.8516 27.3613 42.0566 27.2441 42.4668C27.0098 43.1582 26.7812 43.8438 26.5586 44.5234C26.3477 45.1914 26.1309 45.877 25.9082 46.5801C25.8848 46.6387 25.873 46.6914 25.873 46.7383C25.873 46.7852 25.873 46.8379 25.873 46.8965C25.873 47.3301 26.1016 47.5469 26.5586 47.5469H26.7344C27.4375 47.4531 28.1406 47.3828 28.8438 47.3359C29.5469 47.2773 30.25 47.2305 30.9531 47.1953C31.1875 47.1719 31.3691 47.1133 31.498 47.0195C31.6387 46.9141 31.709 46.7793 31.709 46.6152C31.709 46.4629 31.6387 46.2812 31.498 46.0703C31.0059 45.4141 30.5078 44.7695 30.0039 44.1367C29.5117 43.4922 29.002 42.8535 28.4746 42.2207ZM42.7122 40.8145C42.7122 40.6387 42.7884 40.4688 42.9407 40.3047C43.093 40.1289 43.2923 39.9766 43.5384 39.8477C43.7845 39.707 44.0598 39.5957 44.3645 39.5137C44.6809 39.4199 44.9973 39.373 45.3137 39.373C45.4895 39.373 45.636 39.4199 45.7532 39.5137C45.8821 39.6074 45.9934 39.7891 46.0872 40.0586C46.1809 40.3164 46.263 40.6855 46.3333 41.166C46.4153 41.6348 46.4915 42.25 46.5618 43.0117C46.6087 43.2461 46.6497 43.4277 46.6848 43.5566C46.7317 43.6738 46.7903 43.7324 46.8606 43.7324C46.9661 43.7324 47.0716 43.5508 47.177 43.1875C48.0325 40.7148 49.2688 39.4785 50.886 39.4785C51.636 39.4785 52.3157 39.7129 52.9251 40.1816C53.5462 40.6504 54.1204 41.418 54.6477 42.4844C55.1868 43.5391 55.6966 44.9336 56.177 46.668C56.6575 48.3906 57.138 50.5176 57.6184 53.0488C57.6419 53.1777 57.6595 53.2949 57.6712 53.4004C57.6829 53.5059 57.6887 53.6055 57.6887 53.6992C57.6887 53.9688 57.6243 54.2031 57.4954 54.4023C57.3782 54.5898 57.22 54.748 57.0208 54.877C56.8216 54.9941 56.5989 55.082 56.3528 55.1406C56.1067 55.2109 55.8606 55.2461 55.6145 55.2461C55.1223 55.2461 54.7649 55.1934 54.5423 55.0879C54.3313 54.9824 54.1966 54.7832 54.138 54.4902C53.7981 52.709 53.4641 51.127 53.136 49.7441C52.8196 48.3613 52.5032 47.2012 52.1868 46.2637C51.8821 45.3145 51.5774 44.5938 51.2727 44.1016C50.968 43.6094 50.6634 43.3633 50.3587 43.3633C50.054 43.3633 49.7669 43.5566 49.4973 43.9434C49.2395 44.3184 48.9876 44.9102 48.7415 45.7188C48.4954 46.5273 48.2552 47.5527 48.0208 48.7949C47.7981 50.0371 47.5813 51.5195 47.3704 53.2422C47.3118 53.7109 47.0774 54.0859 46.6673 54.3672C46.2571 54.6484 45.7356 54.7891 45.1028 54.7891C44.6809 54.7891 44.3587 54.7012 44.136 54.5254C43.9134 54.3496 43.7903 54.1094 43.7669 53.8047C43.6614 51.3672 43.5442 49.3633 43.4153 47.793C43.2981 46.2109 43.1868 44.9453 43.0813 43.9961C42.9759 43.0352 42.888 42.3203 42.8177 41.8516C42.7473 41.3828 42.7122 41.0371 42.7122 40.8145ZM60.483 49.1641C60.483 48.9648 60.5064 48.7422 60.5533 48.4961C60.6002 48.25 60.6236 47.9805 60.6236 47.6875C60.6236 47.4883 60.5357 47.3359 60.3599 47.2305C60.1959 47.125 60.0084 47.0078 59.7974 46.8789C59.5865 46.75 59.3931 46.5859 59.2173 46.3867C59.0533 46.1875 58.9712 45.9004 58.9712 45.5254C58.9712 45.2559 59.0416 44.9863 59.1822 44.7168C59.3345 44.4473 59.5513 44.2012 59.8326 43.9785C60.524 43.4629 61.2388 43 61.9771 42.5898C62.7271 42.1797 63.4712 41.834 64.2095 41.5527C64.9595 41.2715 65.6978 41.0547 66.4244 40.9023C67.1509 40.75 67.8482 40.6738 68.5162 40.6738C69.6412 40.6738 70.6959 40.8848 71.6802 41.3066C72.6763 41.7168 73.5377 42.2852 74.2642 43.0117C75.0025 43.7266 75.5826 44.5703 76.0045 45.543C76.438 46.5039 76.6548 47.5352 76.6548 48.6367C76.6548 49.7148 76.4263 50.7402 75.9693 51.7129C75.524 52.6738 74.9205 53.5176 74.1587 54.2441C73.397 54.9707 72.5005 55.5449 71.4693 55.9668C70.4498 56.4004 69.3716 56.6172 68.2349 56.6172C67.1216 56.6172 66.0904 56.4297 65.1412 56.0547C64.192 55.6797 63.3716 55.1641 62.6802 54.5078C61.9888 53.8398 61.4498 53.0547 61.063 52.1523C60.6763 51.2383 60.483 50.2422 60.483 49.1641ZM68.6216 53.4531C69.1138 53.4531 69.6236 53.3535 70.1509 53.1543C70.6783 52.9551 71.1587 52.668 71.5923 52.293C72.0377 51.9062 72.4009 51.4375 72.6822 50.8867C72.9752 50.3359 73.1216 49.7148 73.1216 49.0234C73.1216 48.3203 72.9927 47.6641 72.7349 47.0547C72.4771 46.4453 72.1197 45.918 71.6627 45.4727C71.2173 45.0156 70.6841 44.6582 70.063 44.4004C69.4537 44.1426 68.7916 44.0137 68.0767 44.0137C66.7759 44.0137 65.7798 44.3535 65.0884 45.0332C64.397 45.7012 64.0513 46.7324 64.0513 48.127C64.0513 48.8887 64.1627 49.5977 64.3853 50.2539C64.6197 50.8984 64.942 51.4609 65.3521 51.9414C65.7623 52.4102 66.2427 52.7793 66.7935 53.0488C67.356 53.3184 67.9654 53.4531 68.6216 53.4531ZM81.3123 34.6973C81.3123 34.0762 81.4881 33.6426 81.8397 33.3965C82.1912 33.1387 82.7713 33.0098 83.5799 33.0098C83.8729 33.0098 84.119 33.0391 84.3182 33.0977C84.5291 33.1445 84.7049 33.2383 84.8455 33.3789C84.9979 33.5195 85.1151 33.707 85.1971 33.9414C85.2909 34.1641 85.367 34.4512 85.4256 34.8027C85.5662 35.8926 85.7186 37.0176 85.8827 38.1777C86.0584 39.3379 86.2401 40.5039 86.4276 41.6758C86.4979 42.2031 86.7733 42.4668 87.2537 42.4668C87.3827 42.4668 87.5936 42.4551 87.8866 42.4316C88.1912 42.3965 88.5487 42.3613 88.9588 42.3262C89.369 42.2793 89.8084 42.2324 90.2772 42.1855C90.7577 42.1387 91.2323 42.0977 91.701 42.0625C92.1815 42.0156 92.6327 41.9805 93.0545 41.957C93.4881 41.9219 93.869 41.9043 94.1971 41.9043C94.4549 41.9043 94.66 41.957 94.8123 42.0625C94.9647 42.1562 95.0819 42.2852 95.1639 42.4492C95.2577 42.6016 95.3162 42.7773 95.3397 42.9766C95.3748 43.1641 95.3924 43.3574 95.3924 43.5566C95.3924 43.7324 95.3573 43.9141 95.287 44.1016C95.2284 44.2891 95.1405 44.459 95.0233 44.6113C94.9178 44.752 94.783 44.8691 94.619 44.9629C94.4549 45.0566 94.2674 45.1035 94.0565 45.1035C93.037 45.1035 92.0057 45.1387 90.9627 45.209C89.9315 45.2676 88.9002 45.3496 87.869 45.4551C87.3416 45.5254 87.078 45.7891 87.078 46.2461C87.078 46.2812 87.0838 46.3281 87.0955 46.3867C87.1073 46.4336 87.1131 46.4746 87.1131 46.5098C87.2537 47.5293 87.3827 48.4844 87.4998 49.375C87.6287 50.2656 87.7342 51.0625 87.8162 51.7656C87.91 52.457 87.9803 53.0371 88.0272 53.5059C88.0858 53.9629 88.1151 54.2676 88.1151 54.4199C88.1151 54.8418 88.0741 55.1934 87.992 55.4746C87.91 55.7676 87.7752 56.002 87.5877 56.1777C87.4002 56.3652 87.1483 56.4941 86.8319 56.5645C86.5272 56.6465 86.1405 56.6875 85.6717 56.6875C85.2264 56.6875 84.8983 56.582 84.6873 56.3711C84.4764 56.1602 84.3592 55.8379 84.3358 55.4043C84.2655 54.0215 84.1541 52.6328 84.0018 51.2383C83.8495 49.832 83.6737 48.4316 83.4745 47.0371C83.369 46.5332 83.1053 46.2812 82.6834 46.2812C82.6483 46.2812 82.6073 46.2871 82.5604 46.2988C82.5135 46.3105 82.4725 46.3164 82.4373 46.3164C81.7108 46.4805 81.0252 46.6445 80.3807 46.8086C79.7362 46.9727 79.1327 47.1484 78.5702 47.3359C78.2537 47.4414 77.9725 47.5176 77.7264 47.5645C77.4803 47.5996 77.2577 47.6172 77.0584 47.6172C76.7889 47.6172 76.5897 47.5 76.4608 47.2656C76.3319 47.0195 76.2674 46.7148 76.2674 46.3516C76.2674 46.2227 76.2791 46.0762 76.3026 45.9121C76.326 45.7363 76.3729 45.5664 76.4432 45.4023C76.5018 45.2266 76.5955 45.0684 76.7245 44.9277C76.8416 44.7754 77.0057 44.6523 77.2166 44.5586C77.7088 44.3594 78.3651 44.1543 79.1854 43.9434C80.0057 43.7207 80.9315 43.5156 81.9627 43.3281C82.1971 43.2695 82.3787 43.1758 82.5077 43.0469C82.6483 42.9062 82.7186 42.7012 82.7186 42.4316C82.7186 42.373 82.7186 42.3145 82.7186 42.2559C82.7186 42.1855 82.7069 42.1152 82.6834 42.0449C82.4959 40.9668 82.3143 39.9883 82.1385 39.1094C81.9745 38.2188 81.828 37.457 81.6991 36.8242C81.5819 36.1914 81.4881 35.6934 81.4178 35.3301C81.3475 34.9668 81.3123 34.7559 81.3123 34.6973ZM106.132 39.6367C106.776 39.6367 107.398 39.7363 107.995 39.9355C108.593 40.1348 109.12 40.4102 109.577 40.7617C110.034 41.1133 110.398 41.5352 110.667 42.0273C110.948 42.5195 111.089 43.0645 111.089 43.6621C111.089 43.9082 111.03 44.1484 110.913 44.3828C110.808 44.6055 110.661 44.8047 110.474 44.9805C110.286 45.1445 110.069 45.2793 109.823 45.3848C109.589 45.4785 109.343 45.5254 109.085 45.5254C109.062 45.5254 109.038 45.5312 109.015 45.543C109.003 45.543 108.985 45.543 108.962 45.543C108.939 45.5547 108.915 45.5605 108.892 45.5605L108.962 46.9668C109.009 48.6426 109.243 49.8672 109.665 50.6406C110.099 51.4141 110.661 51.8008 111.353 51.8008C111.599 51.8008 111.816 51.7773 112.003 51.7305C112.202 51.6836 112.384 51.6309 112.548 51.5723C112.724 51.502 112.888 51.4434 113.04 51.3965C113.192 51.3496 113.345 51.3262 113.497 51.3262C113.767 51.3262 114.001 51.4434 114.2 51.6777C114.411 51.9121 114.517 52.1934 114.517 52.5215C114.517 52.8496 114.388 53.1777 114.13 53.5059C113.884 53.834 113.556 54.1328 113.146 54.4023C112.735 54.6602 112.273 54.8711 111.757 55.0352C111.241 55.1992 110.72 55.2812 110.192 55.2812C109.278 55.2812 108.476 54.9062 107.784 54.1562C107.093 53.3945 106.601 52.2812 106.308 50.8164C106.237 50.582 106.144 50.4648 106.026 50.4648C105.886 50.4648 105.763 50.5352 105.657 50.6758C104.497 52.1406 103.261 53.2422 101.948 53.9805C100.636 54.707 99.3409 55.0703 98.0636 55.0703C97.4659 55.0703 96.9269 54.9824 96.4464 54.8066C95.9659 54.6309 95.5558 54.3848 95.2159 54.0684C94.8878 53.7402 94.63 53.3477 94.4425 52.8906C94.2667 52.4219 94.1788 51.9004 94.1788 51.3262C94.1788 50.5176 94.3546 49.668 94.7062 48.7773C95.0695 47.8867 95.5558 47.0078 96.1652 46.1406C96.7745 45.2734 97.4777 44.4473 98.2745 43.6621C99.0831 42.877 99.9269 42.1855 100.806 41.5879C101.696 40.9902 102.599 40.5156 103.513 40.1641C104.427 39.8125 105.3 39.6367 106.132 39.6367ZM105.552 45.7188C105.763 45.3203 105.956 45.0332 106.132 44.8574C106.308 44.6699 106.56 44.5469 106.888 44.4883C107.146 44.4531 107.275 44.3711 107.275 44.2422C107.275 44.1484 107.239 44.0488 107.169 43.9434C106.946 43.6387 106.712 43.375 106.466 43.1523C106.22 42.918 105.892 42.8008 105.482 42.8008C105.036 42.8008 104.538 42.9297 103.987 43.1875C103.437 43.4453 102.874 43.791 102.3 44.2246C101.737 44.6465 101.181 45.1328 100.63 45.6836C100.091 46.2227 99.6105 46.7793 99.1886 47.3535C98.7667 47.9277 98.4269 48.4961 98.1691 49.0586C97.9112 49.6211 97.7823 50.125 97.7823 50.5703C97.7823 50.9688 97.8878 51.2793 98.0987 51.502C98.3214 51.7246 98.6202 51.8359 98.9952 51.8359C99.9562 51.8359 101.005 51.3262 102.142 50.3066C103.278 49.2871 104.415 47.7578 105.552 45.7188ZM31.498 81.6367C32.1426 81.6367 32.7637 81.7363 33.3613 81.9355C33.959 82.1348 34.4863 82.4102 34.9434 82.7617C35.4004 83.1133 35.7637 83.5352 36.0332 84.0273C36.3145 84.5195 36.4551 85.0645 36.4551 85.6621C36.4551 85.9082 36.3965 86.1484 36.2793 86.3828C36.1738 86.6055 36.0273 86.8047 35.8398 86.9805C35.6523 87.1445 35.4355 87.2793 35.1895 87.3848C34.9551 87.4785 34.709 87.5254 34.4512 87.5254C34.4277 87.5254 34.4043 87.5312 34.3809 87.543C34.3691 87.543 34.3516 87.543 34.3281 87.543C34.3047 87.5547 34.2812 87.5605 34.2578 87.5605L34.3281 88.9668C34.375 90.6426 34.6094 91.8672 35.0312 92.6406C35.4648 93.4141 36.0273 93.8008 36.7188 93.8008C36.9648 93.8008 37.1816 93.7773 37.3691 93.7305C37.5684 93.6836 37.75 93.6309 37.9141 93.5723C38.0898 93.502 38.2539 93.4434 38.4062 93.3965C38.5586 93.3496 38.7109 93.3262 38.8633 93.3262C39.1328 93.3262 39.3672 93.4434 39.5664 93.6777C39.7773 93.9121 39.8828 94.1934 39.8828 94.5215C39.8828 94.8496 39.7539 95.1777 39.4961 95.5059C39.25 95.834 38.9219 96.1328 38.5117 96.4023C38.1016 96.6602 37.6387 96.8711 37.123 97.0352C36.6074 97.1992 36.0859 97.2812 35.5586 97.2812C34.6445 97.2812 33.8418 96.9062 33.1504 96.1562C32.459 95.3945 31.9668 94.2812 31.6738 92.8164C31.6035 92.582 31.5098 92.4648 31.3926 92.4648C31.252 92.4648 31.1289 92.5352 31.0234 92.6758C29.8633 94.1406 28.627 95.2422 27.3145 95.9805C26.002 96.707 24.707 97.0703 23.4297 97.0703C22.832 97.0703 22.293 96.9824 21.8125 96.8066C21.332 96.6309 20.9219 96.3848 20.582 96.0684C20.2539 95.7402 19.9961 95.3477 19.8086 94.8906C19.6328 94.4219 19.5449 93.9004 19.5449 93.3262C19.5449 92.5176 19.7207 91.668 20.0723 90.7773C20.4355 89.8867 20.9219 89.0078 21.5312 88.1406C22.1406 87.2734 22.8438 86.4473 23.6406 85.6621C24.4492 84.877 25.293 84.1855 26.1719 83.5879C27.0625 82.9902 27.9648 82.5156 28.8789 82.1641C29.793 81.8125 30.666 81.6367 31.498 81.6367ZM30.918 87.7188C31.1289 87.3203 31.3223 87.0332 31.498 86.8574C31.6738 86.6699 31.9258 86.5469 32.2539 86.4883C32.5117 86.4531 32.6406 86.3711 32.6406 86.2422C32.6406 86.1484 32.6055 86.0488 32.5352 85.9434C32.3125 85.6387 32.0781 85.375 31.832 85.1523C31.5859 84.918 31.2578 84.8008 30.8477 84.8008C30.4023 84.8008 29.9043 84.9297 29.3535 85.1875C28.8027 85.4453 28.2402 85.791 27.666 86.2246C27.1035 86.6465 26.5469 87.1328 25.9961 87.6836C25.457 88.2227 24.9766 88.7793 24.5547 89.3535C24.1328 89.9277 23.793 90.4961 23.5352 91.0586C23.2773 91.6211 23.1484 92.125 23.1484 92.5703C23.1484 92.9688 23.2539 93.2793 23.4648 93.502C23.6875 93.7246 23.9863 93.8359 24.3613 93.8359C25.3223 93.8359 26.3711 93.3262 27.5078 92.3066C28.6445 91.2871 29.7812 89.7578 30.918 87.7188ZM41.3411 85.1523C41.3411 84.9414 41.4055 84.7539 41.5345 84.5898C41.6634 84.4141 41.8333 84.2676 42.0442 84.1504C42.2552 84.0215 42.4954 83.9219 42.7649 83.8516C43.0462 83.7812 43.3274 83.7461 43.6087 83.7461C43.7141 83.7461 43.8372 83.7578 43.9778 83.7812C44.1184 83.8047 44.2591 83.8457 44.3997 83.9043C44.5403 83.9629 44.6575 84.0391 44.7512 84.1328C44.8567 84.2266 44.9212 84.3379 44.9446 84.4668C45.1438 86.5527 45.3137 88.6328 45.4544 90.707C45.595 92.7695 45.6653 94.8555 45.6653 96.9648C45.6653 97.2109 45.5833 97.4395 45.4192 97.6504C45.2669 97.8613 45.0677 98.043 44.8216 98.1953C44.5872 98.3594 44.3235 98.4883 44.0305 98.582C43.7493 98.6758 43.4798 98.7227 43.222 98.7227C42.8938 98.7227 42.6184 98.6465 42.3958 98.4941C42.1731 98.3418 42.0618 98.084 42.0618 97.7207C42.0618 95.5996 41.9973 93.502 41.8684 91.4277C41.7395 89.3535 41.5637 87.2617 41.3411 85.1523ZM48.1966 76.0996C48.1966 76.2754 48.1087 76.4453 47.9329 76.6094C47.7688 76.7734 47.5403 76.9551 47.2473 77.1543C46.9661 77.3535 46.6321 77.5879 46.2454 77.8574C45.8587 78.1152 45.4485 78.4375 45.0149 78.8242C44.593 79.1992 44.1536 79.6562 43.6966 80.1953C43.2395 80.7227 42.7942 81.3496 42.3606 82.0762C42.2669 82.2402 42.1321 82.3516 41.9563 82.4102C41.7923 82.4688 41.6048 82.498 41.3938 82.498C41.1946 82.498 40.9954 82.4746 40.7962 82.4277C40.6087 82.3691 40.4329 82.2988 40.2688 82.2168C40.1165 82.123 39.9876 82.0176 39.8821 81.9004C39.7884 81.7715 39.7415 81.6367 39.7415 81.4961C39.7415 81.1797 39.8352 80.7871 40.0227 80.3184C40.222 79.8379 40.4798 79.3398 40.7962 78.8242C41.1243 78.2969 41.4993 77.7754 41.9212 77.2598C42.3548 76.7324 42.8059 76.2637 43.2747 75.8535C43.7552 75.4316 44.2356 75.0918 44.7161 74.834C45.2083 74.5762 45.6829 74.4473 46.1399 74.4473C46.3509 74.4473 46.5735 74.5059 46.8079 74.623C47.054 74.7402 47.2766 74.8867 47.4759 75.0625C47.6868 75.2266 47.8567 75.4082 47.9856 75.6074C48.1262 75.7949 48.1966 75.959 48.1966 76.0996Z" fill="#363636"/>
<defs>
<filter id="filter0_d_145_1142" x="0" y="0" width="133" height="134" filterUnits="userSpaceOnUse" color-interpolation-filters="sRGB">
<feFlood flood-opacity="0" result="BackgroundImageFix"/>
<feColorMatrix in="SourceAlpha" type="matrix" values="0 0 0 0 0 0 0 0 0 0 0 0 0 0 0 0 0 0 127 0" result="hardAlpha"/>
<feOffset dy="4"/>
<feGaussianBlur stdDeviation="2"/>
<feComposite in2="hardAlpha" operator="out"/>
<feColorMatrix type="matrix" values="0 0 0 0 0 0 0 0 0 0 0 0 0 0 0 0 0 0 0.54 0"/>
<feBlend mode="normal" in2="BackgroundImageFix" result="effect1_dropShadow_145_1142"/>
<feBlend mode="normal" in="SourceGraphic" in2="effect1_dropShadow_145_1142" result="shape"/>
</filter>
<filter id="filter1_d_145_1142" x="107" y="107.5" width="25.5" height="26" filterUnits="userSpaceOnUse" color-interpolation-filters="sRGB">
<feFlood flood-opacity="0" result="BackgroundImageFix"/>
<feColorMatrix in="SourceAlpha" type="matrix" values="0 0 0 0 0 0 0 0 0 0 0 0 0 0 0 0 0 0 127 0" result="hardAlpha"/>
<feOffset dy="4"/>
<feGaussianBlur stdDeviation="2"/>
<feComposite in2="hardAlpha" operator="out"/>
<feColorMatrix type="matrix" values="0 0 0 0 0 0 0 0 0 0 0 0 0 0 0 0 0 0 1 0"/>
<feBlend mode="normal" in2="BackgroundImageFix" result="effect1_dropShadow_145_1142"/>
<feBlend mode="normal" in="SourceGraphic" in2="effect1_dropShadow_145_1142" result="shape"/>
</filter>
</defs>
</svg>
