<svg width="214" height="245" viewBox="0 0 214 245" fill="none" xmlns="http://www.w3.org/2000/svg">
<g filter="url(#filter0_d_187_2236)">
<rect y="33" width="200" height="200" fill="#8CCBAD"/>
</g>
<path d="M83.25 102.688C83.25 102.938 83.1146 103.167 82.8438 103.375C82.5729 103.604 82.25 103.802 81.875 103.969C81.5 104.135 81.125 104.26 80.75 104.344C80.375 104.448 80.0833 104.5 79.875 104.5C79.3958 104.5 78.8125 104.25 78.125 103.75C77.4583 103.25 76.7917 102.667 76.125 102C75.4583 101.333 74.8333 100.656 74.25 99.9688C73.6667 99.2812 73.2292 98.75 72.9375 98.375C72.3125 98.75 71.6458 99.0208 70.9375 99.1875C70.25 99.3542 69.5417 99.4375 68.8125 99.4375C67.5833 99.4375 66.5 99.2083 65.5625 98.75C64.6458 98.2917 63.8438 97.6771 63.1562 96.9062C62.4688 96.1354 61.875 95.2604 61.375 94.2812C60.8958 93.2812 60.4896 92.2396 60.1562 91.1562C59.8229 90.0729 59.5521 88.9896 59.3438 87.9062C59.1354 86.8229 58.9583 85.8125 58.8125 84.875C58.5 83.0417 58.25 81.2396 58.0625 79.4688C57.8958 77.6979 57.8125 75.8958 57.8125 74.0625C57.8125 72.5 57.9062 70.8542 58.0938 69.125C58.2812 67.375 58.5938 65.6562 59.0312 63.9688C59.4688 62.2604 60.0521 60.6458 60.7812 59.125C61.5312 57.5833 62.4583 56.2292 63.5625 55.0625C63.7917 54.8125 64.0833 54.5312 64.4375 54.2188C64.7917 53.9062 65.125 53.75 65.4375 53.75C65.6667 53.75 65.875 53.8125 66.0625 53.9375C66.2708 54.0625 66.4375 54.2083 66.5625 54.375C67.5625 53.875 68.6458 53.625 69.8125 53.625C71.4583 53.625 72.8646 54.0104 74.0312 54.7812C75.1979 55.5312 76.1771 56.5312 76.9688 57.7812C77.7604 59.0104 78.375 60.4167 78.8125 62C79.2708 63.5833 79.6146 65.1979 79.8438 66.8438C80.0729 68.4688 80.2188 70.0521 80.2812 71.5938C80.3438 73.1354 80.375 74.5 80.375 75.6875C80.375 77.1875 80.3125 78.8125 80.1875 80.5625C80.0625 82.2917 79.8333 84.0312 79.5 85.7812C79.1875 87.5312 78.75 89.2188 78.1875 90.8438C77.6458 92.4688 76.9583 93.9167 76.125 95.1875C76.9167 96.1042 77.7083 97.0104 78.5 97.9062C79.3125 98.8021 80.1875 99.6458 81.125 100.438C81.2708 100.542 81.4583 100.677 81.6875 100.844C81.9375 101.031 82.1771 101.219 82.4062 101.406C82.6354 101.615 82.8333 101.823 83 102.031C83.1667 102.26 83.25 102.479 83.25 102.688ZM75.5 75.625C75.5 75.0208 75.4792 74.1562 75.4375 73.0312C75.3958 71.9062 75.3125 70.6771 75.1875 69.3438C75.0625 68.0104 74.875 66.6562 74.625 65.2812C74.375 63.8854 74.0417 62.625 73.625 61.5C73.2083 60.3542 72.6979 59.4271 72.0938 58.7188C71.4896 57.9896 70.75 57.625 69.875 57.625C69.2917 57.625 68.8021 57.8021 68.4062 58.1562C68.0312 58.4896 67.7083 58.9271 67.4375 59.4688C67.1667 59.9896 66.9271 60.5521 66.7188 61.1562C66.5312 61.7604 66.3333 62.3333 66.125 62.875C65.9375 63.3958 65.7083 63.8333 65.4375 64.1875C65.1875 64.5208 64.875 64.6875 64.5 64.6875C64.0833 64.6875 63.7083 64.6042 63.375 64.4375C62.9583 65.9167 62.6771 67.4062 62.5312 68.9062C62.3854 70.3854 62.3125 71.875 62.3125 73.375C62.3125 73.875 62.3333 74.5729 62.375 75.4688C62.4167 76.3646 62.4896 77.3854 62.5938 78.5312C62.6979 79.6771 62.8229 80.8958 62.9688 82.1875C63.1354 83.4792 63.3438 84.7604 63.5938 86.0312C63.8438 87.3021 64.125 88.5312 64.4375 89.7188C64.7708 90.8854 65.1458 91.9167 65.5625 92.8125C66 93.7083 66.4792 94.4271 67 94.9688C67.5417 95.4896 68.1458 95.75 68.8125 95.75C69.1042 95.75 69.3854 95.6979 69.6562 95.5938C69.9479 95.4688 70.2083 95.3125 70.4375 95.125C70.3125 94.9375 70.0938 94.625 69.7812 94.1875C69.4688 93.7292 69.1146 93.2083 68.7188 92.625C68.3438 92.0417 67.9479 91.4375 67.5312 90.8125C67.1146 90.1667 66.7292 89.5625 66.375 89C66.0417 88.4375 65.7604 87.9583 65.5312 87.5625C65.3021 87.1458 65.1875 86.875 65.1875 86.75C65.1875 86.5625 65.2604 86.4062 65.4062 86.2812C65.5521 86.1562 65.7292 86.0625 65.9375 86C66.1458 85.9375 66.3542 85.8958 66.5625 85.875C66.7708 85.8333 66.9375 85.8125 67.0625 85.8125C67.875 85.8125 68.5 85.9583 68.9375 86.25C69.3958 86.5417 69.875 87 70.375 87.625C70.8542 88.2292 71.3125 88.8542 71.75 89.5C72.1875 90.125 72.6458 90.75 73.125 91.375C73.625 90.2292 74.0312 89 74.3438 87.6875C74.6562 86.3542 74.8958 85.0104 75.0625 83.6562C75.2292 82.2812 75.3438 80.9167 75.4062 79.5625C75.4688 78.1875 75.5 76.875 75.5 75.625ZM97 78.375C97 78.5833 96.9792 78.8021 96.9375 79.0312C96.8958 79.2604 96.8542 79.4688 96.8125 79.6562C96.7708 79.8854 96.7292 80.1042 96.6875 80.3125C96.6458 80.5 96.625 80.6875 96.625 80.875C96.625 82.8125 96.6562 84.7604 96.7188 86.7188C96.8021 88.6562 97.0104 90.6042 97.3438 92.5625C97.4479 93.3125 97.5729 94.0417 97.7188 94.75C97.8646 95.4583 98.0312 96.1771 98.2188 96.9062L98.2812 97.0938V97.0312C98.3438 97.1771 98.3958 97.3333 98.4375 97.5C98.5 97.6458 98.5312 97.8021 98.5312 97.9688C98.5312 98.1979 98.4688 98.3854 98.3438 98.5312C98.2396 98.6771 98.1042 98.7917 97.9375 98.875C97.7708 98.9583 97.5833 99.0104 97.375 99.0312C97.1875 99.0521 97.0104 99.0625 96.8438 99.0625C96.1562 99.0625 95.6042 98.9896 95.1875 98.8438C94.7917 98.6771 94.4688 98.4583 94.2188 98.1875C93.9688 97.8958 93.7812 97.5521 93.6562 97.1562C93.5521 96.7604 93.4583 96.3229 93.375 95.8438L93.2812 95.2812C93.1979 94.9896 93.1458 94.6771 93.125 94.3438C93.1042 94.1771 93.0833 94.1042 93.0625 94.125C93.0625 94.125 93.0521 94.0417 93.0312 93.875C92.7396 94.3958 92.3958 94.9583 92 95.5625C91.625 96.1458 91.1875 96.6979 90.6875 97.2188C90.2083 97.7188 89.6875 98.1458 89.125 98.5C88.5625 98.8333 87.9583 99 87.3125 99C86.4167 99 85.7188 98.7292 85.2188 98.1875C84.7396 97.6458 84.3854 96.9896 84.1562 96.2188C83.9271 95.4271 83.7917 94.6146 83.75 93.7812C83.7083 92.9271 83.6875 92.1875 83.6875 91.5625C83.6875 89.1875 83.7604 86.8333 83.9062 84.5C84.0729 82.1667 84.25 79.8229 84.4375 77.4688C84.4375 77.4062 84.4375 77.3229 84.4375 77.2188C84.4583 77.1146 84.4688 77.0312 84.4688 76.9688C84.4896 76.6771 84.5104 76.4062 84.5312 76.1562C84.5521 75.9062 84.6042 75.6667 84.6875 75.4375V75.4688C84.7708 75.1354 84.8854 74.8958 85.0312 74.75C85.1979 74.6042 85.4479 74.5312 85.7812 74.5312C86.0938 74.5312 86.4062 74.5938 86.7188 74.7188C87.0312 74.8229 87.3125 74.9792 87.5625 75.1875C87.8125 75.375 88.0104 75.6042 88.1562 75.875C88.3229 76.1458 88.4062 76.4479 88.4062 76.7812C88.4062 76.9479 88.4062 77.1458 88.4062 77.375C88.4062 77.6042 88.3958 77.8021 88.375 77.9688C88.375 78.1146 88.3646 78.3021 88.3438 78.5312C88.3438 78.7396 88.3438 78.9167 88.3438 79.0625C88.1771 81.0625 88.0521 83.0521 87.9688 85.0312C87.8854 86.9896 87.8438 88.9792 87.8438 91C87.8438 91.5625 87.8438 92.125 87.8438 92.6875C87.8646 93.25 87.9271 93.8125 88.0312 94.375C88.7188 93.5 89.3125 92.3854 89.8125 91.0312C90.3125 89.6562 90.7292 88.2083 91.0625 86.6875C91.4167 85.1458 91.6979 83.625 91.9062 82.125C92.1354 80.6042 92.3021 79.2604 92.4062 78.0938C92.4062 78.0312 92.4062 77.9583 92.4062 77.875C92.4271 77.7917 92.4375 77.7188 92.4375 77.6562C92.4583 77.4271 92.4792 77.2083 92.5 77C92.5208 76.7917 92.5938 76.5938 92.7188 76.4062C92.7188 76.2188 92.7292 76.0208 92.75 75.8125C92.7708 75.6042 92.8229 75.4167 92.9062 75.25C92.9896 75.0625 93.1042 74.9167 93.25 74.8125C93.4167 74.7083 93.6458 74.6562 93.9375 74.6562C94.7708 74.6562 95.4271 74.9167 95.9062 75.4375C96.3854 75.9375 96.6458 76.5833 96.6875 77.375C96.7917 77.5417 96.8646 77.7083 96.9062 77.875C96.9688 78.0208 97 78.1875 97 78.375ZM112.688 93.2812C112.688 93.9062 112.51 94.5521 112.156 95.2188C111.823 95.8854 111.385 96.5 110.844 97.0625C110.302 97.6042 109.677 98.0521 108.969 98.4062C108.281 98.7604 107.594 98.9375 106.906 98.9375C105.927 98.9375 105.083 98.75 104.375 98.375C103.667 97.9792 103.052 97.4583 102.531 96.8125C102.01 96.1458 101.583 95.3958 101.25 94.5625C100.938 93.7292 100.688 92.875 100.5 92C100.312 91.1042 100.177 90.2188 100.094 89.3438C100.031 88.4479 100 87.6354 100 86.9062C100 86.2812 100.031 85.5417 100.094 84.6875C100.177 83.8333 100.302 82.9479 100.469 82.0312C100.656 81.1146 100.906 80.2083 101.219 79.3125C101.531 78.4167 101.917 77.6146 102.375 76.9062C102.854 76.1979 103.417 75.625 104.062 75.1875C104.729 74.75 105.49 74.5312 106.344 74.5312C107.01 74.5312 107.604 74.6667 108.125 74.9375C108.667 75.2083 109.115 75.5729 109.469 76.0312C109.844 76.4688 110.125 76.9792 110.312 77.5625C110.521 78.1458 110.625 78.75 110.625 79.375C110.625 80.1875 110.438 81.0729 110.062 82.0312C109.688 82.9896 109.198 83.9167 108.594 84.8125C108.01 85.7083 107.344 86.5208 106.594 87.25C105.865 87.9583 105.135 88.5 104.406 88.875C104.448 89.25 104.531 89.8021 104.656 90.5312C104.781 91.2396 104.948 91.9479 105.156 92.6562C105.385 93.3646 105.646 93.9792 105.938 94.5C106.25 95.0208 106.615 95.2812 107.031 95.2812C107.24 95.2812 107.417 95.2188 107.562 95.0938C107.729 94.9688 107.875 94.8021 108 94.5938C108.125 94.3854 108.229 94.1562 108.312 93.9062C108.417 93.6562 108.51 93.4167 108.594 93.1875L108.781 92.75C108.823 92.6875 108.844 92.6458 108.844 92.625C108.865 92.6042 108.885 92.5729 108.906 92.5312C109.052 92.2604 109.188 92.0104 109.312 91.7812C109.458 91.5521 109.656 91.3542 109.906 91.1875H109.875C109.958 91.1042 110.042 91.0625 110.125 91.0625C110.229 91.0417 110.323 91.0312 110.406 91.0312C110.635 91.0312 110.885 91.1042 111.156 91.25C111.427 91.3958 111.677 91.5833 111.906 91.8125C112.135 92.0208 112.323 92.2604 112.469 92.5312C112.615 92.7812 112.688 93.0312 112.688 93.2812ZM106.5 79.5C106.5 79.2917 106.49 79.0729 106.469 78.8438C106.448 78.6146 106.396 78.4167 106.312 78.25C106.021 78.6042 105.76 79.0312 105.531 79.5312C105.323 80.0104 105.146 80.5208 105 81.0625C104.854 81.5833 104.729 82.1146 104.625 82.6562C104.542 83.1979 104.479 83.6979 104.438 84.1562C104.979 83.5104 105.458 82.7812 105.875 81.9688C106.292 81.1354 106.5 80.3125 106.5 79.5ZM117.062 99.5C116.75 99.5 116.406 99.4583 116.031 99.375C115.677 99.2917 115.333 99.1562 115 98.9688C114.688 98.7812 114.417 98.5521 114.188 98.2812C113.979 97.9896 113.875 97.6458 113.875 97.25C113.875 96.6667 113.896 96.0938 113.938 95.5312C114 94.9479 114.062 94.375 114.125 93.8125V93.8438L114.312 91.75C114.375 91 114.427 90.1771 114.469 89.2812C114.51 88.3854 114.542 87.4792 114.562 86.5625C114.604 85.625 114.635 84.7083 114.656 83.8125C114.677 82.9167 114.688 82.0938 114.688 81.3438C114.688 80.9062 114.677 80.4688 114.656 80.0312C114.656 79.5729 114.656 79.1146 114.656 78.6562C114.635 78.2604 114.625 77.8229 114.625 77.3438C114.625 76.8438 114.625 76.3854 114.625 75.9688C114.625 75.5312 114.677 75.1771 114.781 74.9062C114.906 74.6146 115.24 74.4688 115.781 74.4688C116.26 74.4688 116.76 74.5938 117.281 74.8438C117.823 75.0938 118.198 75.4479 118.406 75.9062H118.375C118.479 76.1354 118.552 76.5104 118.594 77.0312C118.656 77.5312 118.698 77.9792 118.719 78.375C119.073 77.8333 119.469 77.2604 119.906 76.6562C120.365 76.0521 120.854 75.5 121.375 75C121.896 74.4792 122.448 74.0521 123.031 73.7188C123.615 73.3854 124.24 73.2188 124.906 73.2188C125.781 73.2188 126.448 73.4375 126.906 73.875C127.365 74.3125 127.698 74.8646 127.906 75.5312C128.115 76.1771 128.229 76.875 128.25 77.625C128.271 78.3542 128.281 79.0208 128.281 79.625V79.875C128.281 80.125 128.271 80.375 128.25 80.625C128.25 80.8542 128.208 81.0729 128.125 81.2812C128.062 81.4688 127.938 81.625 127.75 81.75C127.583 81.875 127.344 81.9375 127.031 81.9375C126.698 81.9375 126.344 81.8958 125.969 81.8125C125.594 81.7083 125.24 81.5625 124.906 81.375C124.594 81.1875 124.323 80.9583 124.094 80.6875C123.865 80.3958 123.74 80.0625 123.719 79.6875C123.719 79.5208 123.719 79.3542 123.719 79.1875C123.719 79.0208 123.729 78.8542 123.75 78.6875C123.75 78.5833 123.75 78.4583 123.75 78.3125C123.771 78.1458 123.781 77.9896 123.781 77.8438C123.115 78.5104 122.521 79.3333 122 80.3125C121.5 81.2917 121.042 82.3333 120.625 83.4375C120.229 84.5417 119.885 85.6562 119.594 86.7812C119.302 87.8854 119.052 88.8854 118.844 89.7812V89.875C118.781 90.5208 118.74 91.1562 118.719 91.7812C118.698 92.4062 118.677 93.0521 118.656 93.7188C118.635 94.4688 118.604 95.2292 118.562 96C118.542 96.7708 118.49 97.5208 118.406 98.25C118.365 98.6458 118.24 98.9479 118.031 99.1562C117.844 99.3854 117.521 99.5 117.062 99.5ZM143.188 86.1875C143.188 88 143.031 89.8125 142.719 91.625C142.427 93.4167 141.812 95.1146 140.875 96.7188C140.583 97.1979 140.25 97.6667 139.875 98.125C139.5 98.5625 139.083 98.9583 138.625 99.3125C138.188 99.6875 137.698 99.9792 137.156 100.188C136.635 100.417 136.083 100.531 135.5 100.531C134.583 100.531 133.781 100.312 133.094 99.875C132.427 99.4583 131.844 98.9062 131.344 98.2188C130.865 97.5104 130.458 96.7188 130.125 95.8438C129.812 94.9479 129.562 94.0417 129.375 93.125C129.208 92.1875 129.083 91.2812 129 90.4062C128.938 89.5312 128.906 88.7604 128.906 88.0938C128.906 87.3438 128.938 86.5208 129 85.625C129.062 84.7292 129.167 83.8125 129.312 82.875C129.479 81.9375 129.688 81.0104 129.938 80.0938C130.208 79.1771 130.552 78.3229 130.969 77.5312C131.385 76.7188 131.885 76 132.469 75.375C133.052 74.7292 133.729 74.2188 134.5 73.8438V73.875C135.167 73.5208 135.833 73.3438 136.5 73.3438C136.917 73.3438 137.24 73.4375 137.469 73.625C137.698 73.7917 137.802 74.0833 137.781 74.5C138.927 74.7083 139.854 75.2604 140.562 76.1562C141.271 77.0521 141.812 78.0938 142.188 79.2812C142.583 80.4688 142.844 81.6875 142.969 82.9375C143.115 84.1875 143.188 85.2708 143.188 86.1875ZM136.125 78.375C135.771 78.375 135.438 78.2396 135.125 77.9688C134.729 78.5729 134.396 79.2708 134.125 80.0625C133.854 80.8333 133.635 81.6354 133.469 82.4688C133.323 83.2812 133.219 84.1042 133.156 84.9375C133.094 85.7708 133.062 86.5521 133.062 87.2812C133.062 87.8854 133.094 88.6667 133.156 89.625C133.219 90.5625 133.333 91.5104 133.5 92.4688C133.688 93.4271 133.938 94.3229 134.25 95.1562C134.583 95.9896 135.01 96.6042 135.531 97C136.177 96.625 136.708 96.0312 137.125 95.2188C137.562 94.3854 137.906 93.4792 138.156 92.5C138.406 91.5208 138.573 90.5312 138.656 89.5312C138.76 88.5312 138.812 87.6771 138.812 86.9688C138.812 86.4479 138.781 85.7708 138.719 84.9375C138.656 84.1042 138.552 83.2604 138.406 82.4062C138.26 81.5312 138.052 80.7188 137.781 79.9688C137.531 79.2188 137.208 78.6562 136.812 78.2812C136.625 78.3438 136.396 78.375 136.125 78.375ZM49.125 162.031C49.125 162.26 49.0729 162.458 48.9688 162.625C48.8646 162.771 48.7292 162.896 48.5625 163C48.4167 163.083 48.25 163.146 48.0625 163.188C47.8958 163.229 47.7292 163.25 47.5625 163.25C47.3125 163.25 47.0417 163.219 46.75 163.156C46.4583 163.094 46.1667 163.01 45.875 162.906C45.5833 162.781 45.3125 162.635 45.0625 162.469C44.8333 162.281 44.6562 162.073 44.5312 161.844C44.4062 161.615 44.3125 161.333 44.25 161C44.2083 160.646 44.1667 160.292 44.125 159.938C43.9167 160.438 43.6667 160.927 43.375 161.406C43.1042 161.885 42.7708 162.312 42.375 162.688C41.9792 163.042 41.5312 163.323 41.0312 163.531C40.5521 163.76 40.0104 163.875 39.4062 163.875C38.3438 163.875 37.4792 163.625 36.8125 163.125C36.1667 162.625 35.6562 162 35.2812 161.25C34.9271 160.479 34.6875 159.646 34.5625 158.75C34.4583 157.833 34.4062 156.958 34.4062 156.125C34.4062 155.438 34.4375 154.656 34.5 153.781C34.5625 152.906 34.6458 152.01 34.75 151.094C34.8542 150.177 34.9792 149.292 35.125 148.438C35.2708 147.562 35.4271 146.792 35.5938 146.125C35.8021 145.354 36.0521 144.51 36.3438 143.594C36.6562 142.656 37.0417 141.792 37.5 141C37.9792 140.188 38.5625 139.5 39.25 138.938C39.9375 138.375 40.7604 138.062 41.7188 138C41.6562 136.312 41.5625 134.76 41.4375 133.344C41.3333 131.906 41.2188 130.438 41.0938 128.938L40.7812 125.469L40.6562 124.219C40.6146 123.885 40.5833 123.552 40.5625 123.219C40.5417 122.865 40.5312 122.521 40.5312 122.188C40.5312 121.708 40.6562 121.375 40.9062 121.188C41.1771 121 41.5208 120.906 41.9375 120.906C42.8542 120.906 43.5521 121.042 44.0312 121.312C44.5104 121.583 44.8438 121.948 45.0312 122.406C45.2396 122.865 45.3542 123.406 45.375 124.031C45.3958 124.635 45.4062 125.292 45.4062 126C45.4062 126.458 45.4583 126.979 45.5625 127.562L45.7188 128.719L45.9688 131.906C46.0104 132.406 46.0521 132.906 46.0938 133.406C46.1354 133.906 46.1771 134.406 46.2188 134.906L46.875 141.625L48.125 154.188L48.2188 155.344C48.3021 156.198 48.375 157.083 48.4375 158C48.5208 158.917 48.6667 159.823 48.875 160.719C48.9375 160.948 48.9896 161.167 49.0312 161.375C49.0938 161.583 49.125 161.802 49.125 162.031ZM41.8438 143.75C41.8438 143.521 41.8333 143.271 41.8125 143C41.8125 142.708 41.8125 142.438 41.8125 142.188V141.344C41.6667 141.552 41.4792 141.844 41.25 142.219C41.0208 142.573 40.8438 142.896 40.7188 143.188C40.3854 143.917 40.0833 144.854 39.8125 146C39.5417 147.125 39.3021 148.312 39.0938 149.562C38.9062 150.792 38.7604 152 38.6562 153.188C38.5521 154.354 38.5 155.333 38.5 156.125C38.5 156.417 38.5 156.75 38.5 157.125C38.5208 157.5 38.5625 157.885 38.625 158.281C38.6875 158.656 38.7812 159.021 38.9062 159.375C39.0312 159.729 39.1979 160.021 39.4062 160.25C39.7188 159.854 40 159.25 40.25 158.438C40.5 157.604 40.7083 156.667 40.875 155.625C41.0625 154.562 41.2188 153.448 41.3438 152.281C41.4688 151.115 41.5625 149.99 41.625 148.906C41.7083 147.802 41.7604 146.802 41.7812 145.906C41.8229 144.99 41.8438 144.271 41.8438 143.75ZM63.4375 157.281C63.4375 157.906 63.2604 158.552 62.9062 159.219C62.5729 159.885 62.1354 160.5 61.5938 161.062C61.0521 161.604 60.4271 162.052 59.7188 162.406C59.0312 162.76 58.3438 162.938 57.6562 162.938C56.6771 162.938 55.8333 162.75 55.125 162.375C54.4167 161.979 53.8021 161.458 53.2812 160.812C52.7604 160.146 52.3333 159.396 52 158.562C51.6875 157.729 51.4375 156.875 51.25 156C51.0625 155.104 50.9271 154.219 50.8438 153.344C50.7812 152.448 50.75 151.635 50.75 150.906C50.75 150.281 50.7812 149.542 50.8438 148.688C50.9271 147.833 51.0521 146.948 51.2188 146.031C51.4062 145.115 51.6562 144.208 51.9688 143.312C52.2812 142.417 52.6667 141.615 53.125 140.906C53.6042 140.198 54.1667 139.625 54.8125 139.188C55.4792 138.75 56.2396 138.531 57.0938 138.531C57.7604 138.531 58.3542 138.667 58.875 138.938C59.4167 139.208 59.8646 139.573 60.2188 140.031C60.5938 140.469 60.875 140.979 61.0625 141.562C61.2708 142.146 61.375 142.75 61.375 143.375C61.375 144.188 61.1875 145.073 60.8125 146.031C60.4375 146.99 59.9479 147.917 59.3438 148.812C58.7604 149.708 58.0938 150.521 57.3438 151.25C56.6146 151.958 55.8854 152.5 55.1562 152.875C55.1979 153.25 55.2812 153.802 55.4062 154.531C55.5312 155.24 55.6979 155.948 55.9062 156.656C56.1354 157.365 56.3958 157.979 56.6875 158.5C57 159.021 57.3646 159.281 57.7812 159.281C57.9896 159.281 58.1667 159.219 58.3125 159.094C58.4792 158.969 58.625 158.802 58.75 158.594C58.875 158.385 58.9792 158.156 59.0625 157.906C59.1667 157.656 59.2604 157.417 59.3438 157.188L59.5312 156.75C59.5729 156.688 59.5938 156.646 59.5938 156.625C59.6146 156.604 59.6354 156.573 59.6562 156.531C59.8021 156.26 59.9375 156.01 60.0625 155.781C60.2083 155.552 60.4062 155.354 60.6562 155.188H60.625C60.7083 155.104 60.7917 155.062 60.875 155.062C60.9792 155.042 61.0729 155.031 61.1562 155.031C61.3854 155.031 61.6354 155.104 61.9062 155.25C62.1771 155.396 62.4271 155.583 62.6562 155.812C62.8854 156.021 63.0729 156.26 63.2188 156.531C63.3646 156.781 63.4375 157.031 63.4375 157.281ZM57.25 143.5C57.25 143.292 57.2396 143.073 57.2188 142.844C57.1979 142.615 57.1458 142.417 57.0625 142.25C56.7708 142.604 56.5104 143.031 56.2812 143.531C56.0729 144.01 55.8958 144.521 55.75 145.062C55.6042 145.583 55.4792 146.115 55.375 146.656C55.2917 147.198 55.2292 147.698 55.1875 148.156C55.7292 147.51 56.2083 146.781 56.625 145.969C57.0417 145.135 57.25 144.312 57.25 143.5ZM75.4688 140.094C75.4688 140.344 75.375 140.552 75.1875 140.719C75.0208 140.885 74.8125 141.031 74.5625 141.156C74.3125 141.26 74.0521 141.333 73.7812 141.375C73.5312 141.417 73.3229 141.438 73.1562 141.438C72.9062 141.438 72.6667 141.417 72.4375 141.375C72.2083 141.312 71.9792 141.25 71.75 141.188C71.5208 141.125 71.3021 141.073 71.0938 141.031C70.8854 140.969 70.6667 140.938 70.4375 140.938C70.125 140.938 69.8125 140.99 69.5 141.094C69.1875 141.198 68.9062 141.344 68.6562 141.531C68.4062 141.719 68.1979 141.948 68.0312 142.219C67.8854 142.49 67.8125 142.792 67.8125 143.125C67.8125 143.625 67.9167 144.125 68.125 144.625C68.3333 145.104 68.6042 145.594 68.9375 146.094C69.2917 146.594 69.6875 147.104 70.125 147.625C70.5833 148.125 71.0625 148.635 71.5625 149.156C72.1667 149.823 72.7708 150.5 73.375 151.188C74 151.875 74.5521 152.594 75.0312 153.344C75.5312 154.094 75.9375 154.885 76.25 155.719C76.5625 156.552 76.7188 157.427 76.7188 158.344C76.7188 159.135 76.5833 159.844 76.3125 160.469C76.0625 161.094 75.6979 161.625 75.2188 162.062C74.7604 162.5 74.1979 162.833 73.5312 163.062C72.8854 163.312 72.1771 163.438 71.4062 163.438C71.1979 163.438 70.875 163.396 70.4375 163.312C70.0208 163.229 69.5417 163.115 69 162.969C68.4583 162.802 67.8958 162.625 67.3125 162.438C66.75 162.25 66.2292 162.052 65.75 161.844C65.2917 161.615 64.9062 161.396 64.5938 161.188C64.3021 160.958 64.1562 160.75 64.1562 160.562C64.1562 160.312 64.2708 160.062 64.5 159.812C64.7292 159.542 65 159.302 65.3125 159.094C65.625 158.865 65.9479 158.677 66.2812 158.531C66.6354 158.385 66.9271 158.312 67.1562 158.312C67.4688 158.312 67.7917 158.385 68.125 158.531C68.4792 158.677 68.8333 158.844 69.1875 159.031C69.5833 159.24 69.9792 159.427 70.375 159.594C70.7917 159.76 71.2188 159.844 71.6562 159.844C71.9896 159.844 72.1771 159.729 72.2188 159.5C72.2812 159.271 72.3125 159.01 72.3125 158.719C72.3125 157.99 72.1875 157.302 71.9375 156.656C71.6875 155.99 71.3646 155.344 70.9688 154.719C70.5729 154.094 70.1146 153.49 69.5938 152.906C69.0729 152.302 68.5521 151.708 68.0312 151.125C67.4896 150.542 66.9583 149.958 66.4375 149.375C65.9375 148.792 65.4896 148.198 65.0938 147.594C64.6979 146.969 64.375 146.333 64.125 145.688C63.8958 145.042 63.7812 144.354 63.7812 143.625C63.7812 142.729 63.9792 141.927 64.375 141.219C64.7708 140.49 65.2812 139.865 65.9062 139.344C66.5521 138.823 67.2708 138.427 68.0625 138.156C68.875 137.865 69.6875 137.719 70.5 137.719C70.7708 137.719 71.1875 137.781 71.75 137.906C72.3125 138.01 72.8646 138.167 73.4062 138.375C73.9479 138.583 74.4271 138.833 74.8438 139.125C75.2604 139.417 75.4688 139.74 75.4688 140.094ZM90.375 157.281C90.375 157.906 90.1979 158.552 89.8438 159.219C89.5104 159.885 89.0729 160.5 88.5312 161.062C87.9896 161.604 87.3646 162.052 86.6562 162.406C85.9688 162.76 85.2812 162.938 84.5938 162.938C83.6146 162.938 82.7708 162.75 82.0625 162.375C81.3542 161.979 80.7396 161.458 80.2188 160.812C79.6979 160.146 79.2708 159.396 78.9375 158.562C78.625 157.729 78.375 156.875 78.1875 156C78 155.104 77.8646 154.219 77.7812 153.344C77.7188 152.448 77.6875 151.635 77.6875 150.906C77.6875 150.281 77.7188 149.542 77.7812 148.688C77.8646 147.833 77.9896 146.948 78.1562 146.031C78.3438 145.115 78.5938 144.208 78.9062 143.312C79.2188 142.417 79.6042 141.615 80.0625 140.906C80.5417 140.198 81.1042 139.625 81.75 139.188C82.4167 138.75 83.1771 138.531 84.0312 138.531C84.6979 138.531 85.2917 138.667 85.8125 138.938C86.3542 139.208 86.8021 139.573 87.1562 140.031C87.5312 140.469 87.8125 140.979 88 141.562C88.2083 142.146 88.3125 142.75 88.3125 143.375C88.3125 144.188 88.125 145.073 87.75 146.031C87.375 146.99 86.8854 147.917 86.2812 148.812C85.6979 149.708 85.0312 150.521 84.2812 151.25C83.5521 151.958 82.8229 152.5 82.0938 152.875C82.1354 153.25 82.2188 153.802 82.3438 154.531C82.4688 155.24 82.6354 155.948 82.8438 156.656C83.0729 157.365 83.3333 157.979 83.625 158.5C83.9375 159.021 84.3021 159.281 84.7188 159.281C84.9271 159.281 85.1042 159.219 85.25 159.094C85.4167 158.969 85.5625 158.802 85.6875 158.594C85.8125 158.385 85.9167 158.156 86 157.906C86.1042 157.656 86.1979 157.417 86.2812 157.188L86.4688 156.75C86.5104 156.688 86.5312 156.646 86.5312 156.625C86.5521 156.604 86.5729 156.573 86.5938 156.531C86.7396 156.26 86.875 156.01 87 155.781C87.1458 155.552 87.3438 155.354 87.5938 155.188H87.5625C87.6458 155.104 87.7292 155.062 87.8125 155.062C87.9167 155.042 88.0104 155.031 88.0938 155.031C88.3229 155.031 88.5729 155.104 88.8438 155.25C89.1146 155.396 89.3646 155.583 89.5938 155.812C89.8229 156.021 90.0104 156.26 90.1562 156.531C90.3021 156.781 90.375 157.031 90.375 157.281ZM84.1875 143.5C84.1875 143.292 84.1771 143.073 84.1562 142.844C84.1354 142.615 84.0833 142.417 84 142.25C83.7083 142.604 83.4479 143.031 83.2188 143.531C83.0104 144.01 82.8333 144.521 82.6875 145.062C82.5417 145.583 82.4167 146.115 82.3125 146.656C82.2292 147.198 82.1667 147.698 82.125 148.156C82.6667 147.51 83.1458 146.781 83.5625 145.969C83.9792 145.135 84.1875 144.312 84.1875 143.5ZM97 162.844C97 163.323 96.8542 163.635 96.5625 163.781C96.2917 163.927 95.9583 164 95.5625 164C95.2083 164 94.8542 163.969 94.5 163.906C94.1667 163.865 93.8438 163.771 93.5312 163.625C93.2396 163.479 92.9792 163.281 92.75 163.031C92.5417 162.781 92.3958 162.458 92.3125 162.062C92.0208 160.812 91.8542 159.594 91.8125 158.406C91.7708 157.198 91.75 155.958 91.75 154.688V150.844C91.75 149.094 91.8229 147.281 91.9688 145.406C92.1146 143.51 92.2708 141.688 92.4375 139.938C92.4375 139.875 92.4479 139.802 92.4688 139.719C92.4896 139.635 92.5 139.573 92.5 139.531C92.5208 139.302 92.5521 139.052 92.5938 138.781C92.6354 138.51 92.6979 138.271 92.7812 138.062C92.8854 137.833 93.0208 137.646 93.1875 137.5C93.375 137.354 93.6146 137.281 93.9062 137.281C94.2396 137.281 94.5521 137.354 94.8438 137.5C95.1562 137.625 95.4271 137.802 95.6562 138.031C95.8854 138.24 96.0625 138.5 96.1875 138.812C96.3333 139.125 96.4062 139.448 96.4062 139.781C96.4062 140.135 96.3958 140.531 96.375 140.969C96.3542 141.385 96.3229 141.781 96.2812 142.156C96.2812 142.26 96.2708 142.375 96.25 142.5C96.25 142.625 96.2396 142.74 96.2188 142.844C96.5104 142.26 96.8438 141.656 97.2188 141.031C97.5938 140.385 98.0208 139.802 98.5 139.281C99 138.74 99.5417 138.302 100.125 137.969C100.729 137.635 101.396 137.469 102.125 137.469C102.729 137.469 103.229 137.562 103.625 137.75C104.021 137.938 104.333 138.208 104.562 138.562C104.812 138.896 104.979 139.292 105.062 139.75C105.167 140.208 105.219 140.698 105.219 141.219C105.219 141.927 105.198 142.646 105.156 143.375C105.115 144.083 105.073 144.792 105.031 145.5C104.969 146.229 104.917 146.948 104.875 147.656C104.833 148.365 104.812 149.083 104.812 149.812C104.812 150.688 104.833 151.594 104.875 152.531C104.917 153.448 104.979 154.333 105.062 155.188C105.146 156.021 105.24 156.781 105.344 157.469C105.448 158.135 105.552 158.656 105.656 159.031C105.74 159.344 105.823 159.708 105.906 160.125C106.01 160.521 106.104 160.938 106.188 161.375C106.292 161.792 106.375 162.198 106.438 162.594C106.5 162.99 106.531 163.344 106.531 163.656C106.531 164.115 106.344 164.406 105.969 164.531C105.615 164.656 105.26 164.719 104.906 164.719C104.552 164.719 104.146 164.688 103.688 164.625C103.25 164.583 102.854 164.469 102.5 164.281C102.062 163.969 101.771 163.531 101.625 162.969C101.5 162.406 101.417 161.854 101.375 161.312L101.281 160.469C101.219 159.969 101.135 159.312 101.031 158.5C100.927 157.688 100.823 156.792 100.719 155.812C100.635 154.833 100.562 153.823 100.5 152.781C100.438 151.719 100.406 150.688 100.406 149.688C100.406 148.792 100.438 147.927 100.5 147.094C100.583 146.26 100.667 145.417 100.75 144.562C100.792 144.125 100.823 143.771 100.844 143.5C100.865 143.229 100.896 142.875 100.938 142.438C100.521 143.104 100.104 143.885 99.6875 144.781C99.2708 145.677 98.875 146.615 98.5 147.594C98.125 148.552 97.7812 149.49 97.4688 150.406C97.1771 151.323 96.9479 152.125 96.7812 152.812L96.5938 153.5C96.4896 153.833 96.3958 154.167 96.3125 154.5C96.25 154.833 96.2188 155.146 96.2188 155.438C96.2188 155.812 96.2396 156.25 96.2812 156.75C96.3229 157.229 96.375 157.688 96.4375 158.125C96.5 158.646 96.5729 159.177 96.6562 159.719C96.6562 159.76 96.6771 159.896 96.7188 160.125C96.7604 160.354 96.8021 160.625 96.8438 160.938C96.8854 161.25 96.9167 161.583 96.9375 161.938C96.9792 162.271 97 162.573 97 162.844ZM123.781 161.312C123.781 161.729 123.646 162.031 123.375 162.219C123.104 162.406 122.771 162.5 122.375 162.5C122.125 162.5 121.865 162.479 121.594 162.438C121.323 162.375 121.062 162.312 120.812 162.25C120.375 162.125 120.031 161.969 119.781 161.781C119.552 161.594 119.375 161.385 119.25 161.156C119.125 160.906 119.042 160.635 119 160.344C118.979 160.052 118.958 159.729 118.938 159.375C118.938 159.271 118.927 159.177 118.906 159.094C118.906 159.01 118.906 158.927 118.906 158.844C118.844 157.656 118.781 156.438 118.719 155.188C118.677 153.938 118.656 152.719 118.656 151.531C118.656 150.927 118.656 150.323 118.656 149.719C118.677 149.115 118.698 148.51 118.719 147.906C118.74 147.302 118.75 146.708 118.75 146.125C118.771 145.521 118.781 144.917 118.781 144.312C118.781 144.188 118.771 144.073 118.75 143.969C118.75 143.844 118.74 143.719 118.719 143.594C118.177 144.385 117.698 145.271 117.281 146.25C116.885 147.208 116.531 148.208 116.219 149.25C115.906 150.271 115.635 151.302 115.406 152.344C115.198 153.365 115.021 154.344 114.875 155.281L114.781 155.938C114.677 156.667 114.573 157.417 114.469 158.188C114.365 158.938 114.312 159.688 114.312 160.438C114.312 160.75 114.365 161.094 114.469 161.469C114.51 161.635 114.542 161.802 114.562 161.969C114.604 162.115 114.625 162.302 114.625 162.531C114.625 163.031 114.5 163.365 114.25 163.531C114 163.719 113.667 163.812 113.25 163.812C113 163.812 112.719 163.792 112.406 163.75C112.115 163.708 111.823 163.635 111.531 163.531C111.26 163.448 111 163.333 110.75 163.188C110.5 163.042 110.302 162.854 110.156 162.625C110.031 162.354 109.906 161.635 109.781 160.469C109.677 159.302 109.573 157.854 109.469 156.125C109.385 154.396 109.302 152.458 109.219 150.312C109.135 148.146 109.052 145.927 108.969 143.656C108.906 141.385 108.844 139.135 108.781 136.906C108.74 134.677 108.698 132.625 108.656 130.75C108.635 128.875 108.615 127.25 108.594 125.875C108.573 124.479 108.562 123.5 108.562 122.938C108.562 122.521 108.615 122.146 108.719 121.812C108.844 121.458 109.177 121.281 109.719 121.281C110.281 121.281 110.812 121.417 111.312 121.688C111.812 121.938 112.177 122.333 112.406 122.875C112.448 122.958 112.49 123.302 112.531 123.906C112.573 124.49 112.615 125.25 112.656 126.188C112.698 127.104 112.74 128.167 112.781 129.375C112.823 130.562 112.865 131.802 112.906 133.094C112.948 134.365 112.99 135.646 113.031 136.938C113.073 138.229 113.115 139.438 113.156 140.562L113.312 145.188C113.562 144.542 113.875 143.865 114.25 143.156C114.625 142.448 115.052 141.802 115.531 141.219C116.031 140.635 116.583 140.156 117.188 139.781C117.812 139.406 118.5 139.219 119.25 139.219C120.167 139.219 120.885 139.458 121.406 139.938C121.927 140.417 122.312 141.01 122.562 141.719C122.833 142.427 123 143.188 123.062 144C123.125 144.812 123.156 145.552 123.156 146.219C123.156 146.635 123.146 147.042 123.125 147.438C123.125 147.833 123.115 148.229 123.094 148.625C123.073 149.042 123.052 149.458 123.031 149.875C123.031 150.271 123.031 150.677 123.031 151.094C123.031 152.531 123.062 154.01 123.125 155.531C123.188 157.031 123.344 158.51 123.594 159.969L123.656 160.406C123.698 160.531 123.729 160.677 123.75 160.844C123.771 161.01 123.781 161.167 123.781 161.312ZM139.75 162.594C139.75 163.01 139.646 163.292 139.438 163.438C139.229 163.604 138.938 163.688 138.562 163.688C137.583 163.688 136.875 163.427 136.438 162.906C136.021 162.385 135.708 161.698 135.5 160.844C135.438 160.552 135.375 160.26 135.312 159.969C135.25 159.656 135.198 159.354 135.156 159.062C135.115 158.792 135.073 158.604 135.031 158.5C134.99 158.396 134.948 158.198 134.906 157.906C134.656 158.51 134.344 159.146 133.969 159.812C133.615 160.458 133.198 161.062 132.719 161.625C132.24 162.167 131.698 162.615 131.094 162.969C130.51 163.323 129.865 163.5 129.156 163.5C128.406 163.5 127.781 163.323 127.281 162.969C126.781 162.594 126.385 162.135 126.094 161.594C125.823 161.031 125.625 160.417 125.5 159.75C125.396 159.083 125.344 158.448 125.344 157.844C125.344 156.427 125.479 154.896 125.75 153.25C126.042 151.583 126.438 149.927 126.938 148.281C127.438 146.615 128.021 145.021 128.688 143.5C129.354 141.958 130.083 140.615 130.875 139.469V139.5L131.062 139.219C131.292 138.906 131.552 138.573 131.844 138.219C132.156 137.844 132.521 137.656 132.938 137.656C133.333 137.656 133.677 137.833 133.969 138.188C134.26 138.521 134.469 138.875 134.594 139.25C135.135 139.354 135.573 139.49 135.906 139.656C136.24 139.802 136.5 139.99 136.688 140.219C136.875 140.448 137 140.719 137.062 141.031C137.125 141.323 137.156 141.646 137.156 142C137.156 142.146 137.156 142.302 137.156 142.469C137.156 142.635 137.146 142.802 137.125 142.969C137.104 143.135 137.094 143.333 137.094 143.562C137.094 143.792 137.094 144 137.094 144.188C137.094 144.396 137.125 144.667 137.188 145C137.271 145.333 137.354 145.677 137.438 146.031L137.656 147.188C137.76 147.792 137.844 148.479 137.906 149.25C137.99 150.021 138.083 150.792 138.188 151.562C138.271 152.354 138.354 153.125 138.438 153.875C138.521 154.604 138.604 155.281 138.688 155.906L139.438 160.531L139.531 161.062C139.573 161.333 139.615 161.583 139.656 161.812C139.719 162.042 139.75 162.302 139.75 162.594ZM132.594 144.625C132.594 144.583 132.583 144.521 132.562 144.438C132.542 144.333 132.521 144.229 132.5 144.125C132.021 145.146 131.594 146.26 131.219 147.469C130.865 148.656 130.562 149.875 130.312 151.125C130.083 152.354 129.906 153.594 129.781 154.844C129.677 156.073 129.625 157.24 129.625 158.344C129.625 158.448 129.625 158.542 129.625 158.625C129.625 158.708 129.635 158.792 129.656 158.875V158.906C130.156 158.135 130.583 157.125 130.938 155.875C131.312 154.604 131.625 153.281 131.875 151.906C132.125 150.51 132.302 149.167 132.406 147.875C132.531 146.562 132.594 145.479 132.594 144.625ZM144.688 163.5C144.375 163.5 144.031 163.458 143.656 163.375C143.302 163.292 142.958 163.156 142.625 162.969C142.312 162.781 142.042 162.552 141.812 162.281C141.604 161.99 141.5 161.646 141.5 161.25C141.5 160.667 141.521 160.094 141.562 159.531C141.625 158.948 141.688 158.375 141.75 157.812V157.844L141.938 155.75C142 155 142.052 154.177 142.094 153.281C142.135 152.385 142.167 151.479 142.188 150.562C142.229 149.625 142.26 148.708 142.281 147.812C142.302 146.917 142.312 146.094 142.312 145.344C142.312 144.906 142.302 144.469 142.281 144.031C142.281 143.573 142.281 143.115 142.281 142.656C142.26 142.26 142.25 141.823 142.25 141.344C142.25 140.844 142.25 140.385 142.25 139.969C142.25 139.531 142.302 139.177 142.406 138.906C142.531 138.615 142.865 138.469 143.406 138.469C143.885 138.469 144.385 138.594 144.906 138.844C145.448 139.094 145.823 139.448 146.031 139.906H146C146.104 140.135 146.177 140.51 146.219 141.031C146.281 141.531 146.323 141.979 146.344 142.375C146.698 141.833 147.094 141.26 147.531 140.656C147.99 140.052 148.479 139.5 149 139C149.521 138.479 150.073 138.052 150.656 137.719C151.24 137.385 151.865 137.219 152.531 137.219C153.406 137.219 154.073 137.438 154.531 137.875C154.99 138.312 155.323 138.865 155.531 139.531C155.74 140.177 155.854 140.875 155.875 141.625C155.896 142.354 155.906 143.021 155.906 143.625V143.875C155.906 144.125 155.896 144.375 155.875 144.625C155.875 144.854 155.833 145.073 155.75 145.281C155.688 145.469 155.562 145.625 155.375 145.75C155.208 145.875 154.969 145.938 154.656 145.938C154.323 145.938 153.969 145.896 153.594 145.812C153.219 145.708 152.865 145.562 152.531 145.375C152.219 145.188 151.948 144.958 151.719 144.688C151.49 144.396 151.365 144.062 151.344 143.688C151.344 143.521 151.344 143.354 151.344 143.188C151.344 143.021 151.354 142.854 151.375 142.688C151.375 142.583 151.375 142.458 151.375 142.312C151.396 142.146 151.406 141.99 151.406 141.844C150.74 142.51 150.146 143.333 149.625 144.312C149.125 145.292 148.667 146.333 148.25 147.438C147.854 148.542 147.51 149.656 147.219 150.781C146.927 151.885 146.677 152.885 146.469 153.781V153.875C146.406 154.521 146.365 155.156 146.344 155.781C146.323 156.406 146.302 157.052 146.281 157.719C146.26 158.469 146.229 159.229 146.188 160C146.167 160.771 146.115 161.521 146.031 162.25C145.99 162.646 145.865 162.948 145.656 163.156C145.469 163.385 145.146 163.5 144.688 163.5ZM164.312 154.5C164.312 155.417 163.896 155.875 163.062 155.875C162.812 155.875 162.5 155.844 162.125 155.781C161.771 155.719 161.406 155.625 161.031 155.5C160.656 155.375 160.312 155.229 160 155.062C159.708 154.875 159.5 154.667 159.375 154.438C159.208 154.146 159.125 153.844 159.125 153.531C159.125 153.198 159.125 152.854 159.125 152.5C159 147.875 158.833 143.281 158.625 138.719C158.438 134.135 158.25 129.521 158.062 124.875C158.021 123.896 157.979 122.917 157.938 121.938C157.896 120.938 157.875 119.938 157.875 118.938C157.875 118.458 157.927 118.104 158.031 117.875C158.135 117.625 158.458 117.5 159 117.5C159.271 117.5 159.562 117.542 159.875 117.625C160.188 117.688 160.479 117.792 160.75 117.938C161.042 118.062 161.292 118.229 161.5 118.438C161.729 118.625 161.896 118.854 162 119.125C162.062 119.292 162.135 119.844 162.219 120.781C162.323 121.719 162.427 122.927 162.531 124.406C162.635 125.865 162.74 127.521 162.844 129.375C162.948 131.229 163.052 133.146 163.156 135.125C163.281 137.083 163.396 139.042 163.5 141C163.604 142.938 163.698 144.74 163.781 146.406C163.885 148.073 163.969 149.531 164.031 150.781C164.115 152.031 164.188 152.938 164.25 153.5C164.25 153.667 164.26 153.833 164.281 154C164.302 154.167 164.312 154.333 164.312 154.5ZM159.438 159.625C159.438 159.417 159.51 159.26 159.656 159.156C159.802 159.031 159.979 158.948 160.188 158.906C160.417 158.844 160.635 158.812 160.844 158.812C161.073 158.812 161.271 158.812 161.438 158.812C161.646 158.812 161.885 158.823 162.156 158.844C162.448 158.844 162.719 158.885 162.969 158.969C163.219 159.031 163.427 159.146 163.594 159.312C163.781 159.458 163.875 159.667 163.875 159.938C163.875 160.042 163.865 160.271 163.844 160.625C163.844 160.958 163.833 161.323 163.812 161.719C163.812 162.115 163.792 162.479 163.75 162.812C163.729 163.125 163.708 163.292 163.688 163.312C163.562 163.542 163.365 163.667 163.094 163.688C162.823 163.729 162.562 163.75 162.312 163.75C161.688 163.75 161.219 163.719 160.906 163.656C160.594 163.594 160.365 163.469 160.219 163.281C160.094 163.094 160 162.833 159.938 162.5C159.896 162.167 159.833 161.729 159.75 161.188C159.708 160.938 159.646 160.688 159.562 160.438C159.479 160.188 159.438 159.917 159.438 159.625Z" fill="#2D2A2A"/>
<path d="M124.654 192.188C119.677 195.728 114.976 199.908 110.022 203.524C107.015 205.719 104.311 208.757 101.276 210.779C100.617 211.218 98.409 212.593 99.2728 212.593" stroke="#2D2A2A" stroke-width="3" stroke-linecap="round"/>
<path d="M104.648 220.38C107.304 218.098 109.82 215.494 112.498 213.255C116.202 210.156 120.045 207.6 123.872 204.866C125.67 203.582 127.326 201.946 129.105 200.624C129.402 200.403 129.655 200.379 129.792 199.976" stroke="#2D2A2A" stroke-width="3" stroke-linecap="round"/>
<path d="M125.22 191.691C125.916 193.53 127.104 195.086 128.262 196.513C128.732 197.092 129.725 197.709 130 198.388" stroke="#2D2A2A" stroke-width="3" stroke-linecap="round"/>
<path d="M99.7959 213.656C99.9479 216.279 101.837 217.15 103.273 218.477" stroke="#2D2A2A" stroke-width="2" stroke-linecap="round"/>
<path d="M98.058 213.388C97.4975 215.115 96.8201 217.026 96.549 218.864C96.4524 219.519 96.3598 220.065 96.0058 220.501C95.3411 221.32 96.4598 221.692 96.8991 221.692C99.6656 221.692 102.294 220.771 105.011 220.352" stroke="#2D2A2A" stroke-width="3" stroke-linecap="round"/>
<path d="M70.0582 206.93C70.0342 207.47 69.8037 208.044 70.465 208.068C70.9732 208.086 72.3994 208.274 72.5695 207.507C72.7997 206.469 70.7815 207.303 71.8259 207.499" stroke="#2D2A2A" stroke-width="5" stroke-linecap="round"/>
<path d="M85.3365 200.811C85.3365 201.292 85.6165 201.738 85.8907 201.017C86.3827 199.723 84.1169 199.867 83.8424 200.795C83.5809 201.679 85.2709 200.765 85.4347 200.1C85.5606 199.589 84.5789 200.487 84.5789 200.954" stroke="#2D2A2A" stroke-width="5" stroke-linecap="round"/>
<path d="M78.1392 216.891C79.2989 216.839 80.3776 216.525 81.4922 216.172C82.97 215.704 84.5513 215.306 85.9537 214.591C87.899 213.599 89.5153 211.836 90.7378 209.887C91.6462 208.438 92.7861 206.228 92.7861 204.368" stroke="#2D2A2A" stroke-width="5" stroke-linecap="round"/>
<path d="M99.7852 4C96.9143 11.9371 99.0622 21.0624 96.3809 29.1064" stroke="#E46746" stroke-width="7" stroke-linecap="round"/>
<path d="M110 21.873C105.527 25.2636 102.906 30.1995 98.747 33.7643C96.8628 35.3793 90.7844 24.4943 90 23.1496" stroke="#E46746" stroke-width="7" stroke-linecap="round"/>
<defs>
<filter id="filter0_d_187_2236" x="0" y="31" width="214" height="214" filterUnits="userSpaceOnUse" color-interpolation-filters="sRGB">
<feFlood flood-opacity="0" result="BackgroundImageFix"/>
<feColorMatrix in="SourceAlpha" type="matrix" values="0 0 0 0 0 0 0 0 0 0 0 0 0 0 0 0 0 0 127 0" result="hardAlpha"/>
<feOffset dx="7" dy="5"/>
<feGaussianBlur stdDeviation="3.5"/>
<feComposite in2="hardAlpha" operator="out"/>
<feColorMatrix type="matrix" values="0 0 0 0 0 0 0 0 0 0 0 0 0 0 0 0 0 0 0.25 0"/>
<feBlend mode="normal" in2="BackgroundImageFix" result="effect1_dropShadow_187_2236"/>
<feBlend mode="normal" in="SourceGraphic" in2="effect1_dropShadow_187_2236" result="shape"/>
</filter>
</defs>
</svg>
